<?xml version="1.0" encoding="UTF-8"?>
<svg version="1.1" xmlns="http://www.w3.org/2000/svg" width="1408" height="768">
<path d="M0 0 C464.64 0 929.28 0 1408 0 C1408 253.44 1408 506.88 1408 768 C943.36 768 478.72 768 0 768 C0 514.56 0 261.12 0 0 Z " fill="#F9FCFE" transform="translate(0,0)"/>
<path d="M0 0 C0.7317746 -0.00090637 1.46354919 -0.00181274 2.21749878 -0.00274658 C10.41486912 -0.00159941 18.58802433 0.18187626 26.7734375 0.63671875 C27.85124985 0.6944622 27.85124985 0.6944622 28.95083618 0.75337219 C31.96734729 0.9387107 34.49221264 1.22657088 37.375 2.1875 C38.93490925 2.3414947 40.49824021 2.46188911 42.0625 2.5625 C49.61083704 3.20808146 56.97186413 4.63346809 64.375 6.1875 C65.53902344 6.42984375 66.70304687 6.6721875 67.90234375 6.921875 C90.96859935 12.2313714 113.22517663 20.65226904 134.375 31.1875 C135.16680664 31.5779248 135.95861328 31.96834961 136.77441406 32.37060547 C147.81996713 37.86004053 158.17981895 44.2571658 168.375 51.1875 C169.31303467 51.82389404 169.31303467 51.82389404 170.27001953 52.47314453 C179.10623283 58.51425322 187.35854955 65.09416263 195.375 72.1875 C196.12056152 72.84548584 196.86612305 73.50347168 197.63427734 74.18139648 C203.77540832 79.64984739 209.68383044 85.31332517 215.5 91.125 C216.34175781 91.95451172 217.18351562 92.78402344 218.05078125 93.63867188 C223.60704437 99.18201345 228.58286221 104.97685144 233.375 111.1875 C234.20999172 112.22836974 235.04685836 113.26774222 235.88671875 114.3046875 C256.28837745 140.16388147 272.52481068 170.09907096 283.375 201.1875 C283.81585937 202.41855469 284.25671875 203.64960938 284.7109375 204.91796875 C287.72503823 213.58579177 289.95671073 222.28577621 291.93408203 231.23730469 C292.32554162 232.96874389 292.75207811 234.69216919 293.18359375 236.4140625 C294.86151817 243.143148 296.00962333 249.89195995 297 256.75 C297.12318604 257.60045898 297.24637207 258.45091797 297.37329102 259.32714844 C299.11367678 271.89833851 299.56142825 284.31892813 299.56030273 296.9934082 C299.56247639 299.72037686 299.58065721 302.44693128 299.59960938 305.17382812 C299.75014219 352.17219205 287.57430249 398.80349309 265.375 440.1875 C264.96668945 440.96399902 264.55837891 441.74049805 264.13769531 442.54052734 C257.94107222 454.31135512 251.25619899 465.46865168 243.375 476.1875 C242.85115723 476.90067383 242.32731445 477.61384766 241.78759766 478.34863281 C235.73697388 486.53001118 229.52712961 494.41767065 222.56640625 501.84765625 C220.62829266 503.91705026 218.77465096 506.0289562 216.9375 508.1875 C210.02826321 516.0999515 202.56798969 523.29195711 194.33349609 529.81176758 C191.45143519 532.12612099 188.64304464 534.51032123 185.83203125 536.91015625 C179.68398203 542.07830271 173.20200111 546.63455855 166.5 551.0625 C165.6342485 551.63778946 165.6342485 551.63778946 164.75100708 552.22470093 C153.66388124 559.57639161 142.22859398 566.14254898 130.375 572.1875 C129.09351074 572.84697632 129.09351074 572.84697632 127.78613281 573.51977539 C120.19527169 577.38183016 112.3899826 580.34493023 104.375 583.1875 C103.50568848 583.50122559 102.63637695 583.81495117 101.74072266 584.13818359 C79.5217882 592.10831532 56.78817708 597.25403661 33.375 600.1875 C32.6995665 600.27442108 32.024133 600.36134216 31.32823181 600.45089722 C25.75332566 601.12518722 20.24951407 601.37568038 14.63671875 601.42578125 C13.72637375 601.4355751 12.81602875 601.44536896 11.87809753 601.45545959 C-8.66268112 601.63079054 -28.41367358 601.23348573 -48.625 597.1875 C-50.27991455 596.87401611 -50.27991455 596.87401611 -51.96826172 596.55419922 C-104.6647019 586.45953031 -154.72230213 562.05722266 -194.1484375 525.48046875 C-197.03425645 522.80858275 -199.99063201 520.22815206 -202.96875 517.66015625 C-206.17757887 514.80702303 -206.17757887 514.80702303 -207.625 513.1875 C-207.625 512.5275 -207.625 511.8675 -207.625 511.1875 C-208.285 511.1875 -208.945 511.1875 -209.625 511.1875 C-211 509.82421875 -211 509.82421875 -212.625 507.875 C-215.36910254 504.63043614 -218.20195294 501.52131465 -221.125 498.4375 C-233.63761567 484.66981954 -244.14871426 469.15813873 -253.625 453.1875 C-254.08326172 452.42066895 -254.54152344 451.65383789 -255.01367188 450.86376953 C-266.44333513 431.53466879 -275.59693477 410.56588098 -282.06201172 389.05615234 C-282.58534901 387.31910826 -283.13724002 385.59073715 -283.69140625 383.86328125 C-285.98693353 376.40056706 -287.62252457 368.83205076 -289.1875 361.1875 C-289.38545166 360.23415771 -289.58340332 359.28081543 -289.78735352 358.29858398 C-293.51459261 339.48394868 -295.15054057 321.1048396 -295 301.9375 C-294.99501495 300.86389221 -294.99002991 299.79028442 -294.9848938 298.68414307 C-294.89796689 282.68810506 -294.57668744 266.95395219 -291.625 251.1875 C-291.4098877 250.0236377 -291.19477539 248.85977539 -290.97314453 247.66064453 C-280.73027189 194.24889656 -257.84819979 144.88457544 -222.00244141 103.76977539 C-221.02468406 102.64661953 -220.05367772 101.51757065 -219.08740234 100.38452148 C-208.13718323 87.64751989 -196.04639426 75.32034436 -182.625 65.1875 C-181.62855469 64.39730469 -180.63210938 63.60710937 -179.60546875 62.79296875 C-142.04436193 33.08173703 -97.13658838 12.96638121 -49.96875 4.76953125 C-47.22495837 4.29193201 -44.528582 3.73425812 -41.8125 3.125 C-27.92107229 0.43268746 -14.10233001 -0.00112281 0 0 Z " fill="#FEFEFE" transform="translate(701.625,83.8125)"/>
<path d="M0 0 C4.70701829 2.68410241 7.36436936 6.34473278 9.7109375 11.14453125 C11.07010099 18.07626505 11.24887205 24.24563172 7.671875 30.51171875 C4.34776282 35.04106459 -0.13064104 38.98241626 -5.6640625 40.33203125 C-8.35523751 40.47314155 -10.96481532 40.42353115 -13.6640625 40.33203125 C-13.83421875 40.99847656 -14.004375 41.66492188 -14.1796875 42.3515625 C-15.76582555 48.38394923 -17.64272635 54.14186006 -19.9921875 59.921875 C-20.74602855 62.62606062 -20.77740193 63.77293351 -19.6640625 66.33203125 C-18.15419922 68.05455225 -18.15419922 68.05455225 -16.2265625 69.70703125 C-4.09674726 81.4462621 5.69721101 98.12700648 10.3359375 114.33203125 C10.3359375 114.99203125 10.3359375 115.65203125 10.3359375 116.33203125 C11.6353125 116.53828125 12.9346875 116.74453125 14.2734375 116.95703125 C21.85962436 118.68658643 27.37216176 122.48490639 31.7734375 128.89453125 C38.81209973 140.14435892 38.80002947 154.74049958 36.83984375 167.58203125 C34.51514108 175.98773584 29.82165949 183.63905939 22.3359375 188.33203125 C20.61531691 188.90026089 18.88543862 189.44103974 17.1484375 189.95703125 C13.86023314 191.15229105 12.65605566 191.71744239 11.01953125 194.859375 C10.38274779 196.92958734 9.79202491 199.01439263 9.2421875 201.109375 C4.84551908 216.74407952 -7.90730518 229.70059391 -21.6640625 237.58203125 C-35.57077892 245.33203125 -35.57077892 245.33203125 -39.6640625 245.33203125 C-39.6640625 245.99203125 -39.6640625 246.65203125 -39.6640625 247.33203125 C-39.0246875 247.64140625 -38.3853125 247.95078125 -37.7265625 248.26953125 C-35.6640625 249.33203125 -35.6640625 249.33203125 -34.6640625 250.33203125 C-32.4603793 250.65697113 -30.25070665 250.94163395 -28.0390625 251.20703125 C-20.28340095 252.23432312 -20.28340095 252.23432312 -16.8515625 254.01953125 C-11.62660549 256.17098413 -7.35592048 255.34356794 -2.1484375 253.38671875 C4.84839632 250.145854 11.0248069 245.79872715 15.3359375 239.33203125 C15.54663744 237.10546842 15.54663744 237.10546842 15.390625 234.65625 C15.36613281 233.74552734 15.34164063 232.83480469 15.31640625 231.89648438 C15.24651164 229.98991486 15.16848401 228.08362485 15.08203125 226.17773438 C14.90754465 218.8954849 16.15935847 215.86156351 21.0234375 210.45703125 C24.75623126 208.64107753 28.28001251 208.569844 32.3359375 209.33203125 C35.03537174 210.75071202 36.99061143 212.33600906 39.3359375 214.33203125 C39.8515625 213.58953125 40.3671875 212.84703125 40.8984375 212.08203125 C44.47703131 208.04464336 47.65394888 205.7643518 52.953125 204.91015625 C59.70890394 204.57330301 64.22634194 205.8828596 69.3359375 210.33203125 C75.34629957 216.32740488 75.68755156 221.89924784 75.72094727 230.0144043 C75.40977546 247.03129713 66.500087 262.89966511 55.3359375 275.33203125 C54.47355469 276.30011719 53.61117188 277.26820313 52.72265625 278.265625 C45.25614777 286.32909314 36.87222066 291.95969839 27.3359375 297.33203125 C26.45164062 297.84507812 25.56734375 298.358125 24.65625 298.88671875 C16.94577234 303.06647263 7.70567107 306.20474163 -0.9375 307.734375 C-3.40841313 308.58969108 -4.34145137 310.08715893 -5.9140625 312.14453125 C-9.27451141 316.17851841 -12.65896427 318.6781727 -17.6640625 320.33203125 C-18.6540625 320.33203125 -19.6440625 320.33203125 -20.6640625 320.33203125 C-20.68984375 321.14542969 -20.715625 321.95882813 -20.7421875 322.796875 C-21.68489175 341.8437858 -26.89398041 366.95315181 -40.4765625 381.23828125 C-41.0128125 381.72296875 -41.5490625 382.20765625 -42.1015625 382.70703125 C-45.70076361 386.51851768 -45.21797574 391.29693826 -45.34692383 396.2355957 C-45.87690189 414.32615609 -50.5188432 435.0737348 -63.6640625 448.33203125 C-69.85601436 453.98448632 -75.5178329 456.62831879 -84.0390625 456.33203125 C-90.98939276 455.49303391 -95.87872152 452.58988543 -100.4140625 447.28515625 C-105.9941557 439.41722484 -108.47138976 431.87341318 -109.6640625 422.33203125 C-116.9240625 422.33203125 -124.1840625 422.33203125 -131.6640625 422.33203125 C-131.8703125 424.06453125 -132.0765625 425.79703125 -132.2890625 427.58203125 C-133.97092203 437.47463554 -137.82420145 445.60478352 -145.63671875 452.02734375 C-152.21913129 456.26342427 -159.05707149 456.11983767 -166.6640625 455.33203125 C-174.49877467 453.04206345 -179.3801681 446.9928544 -183.6640625 440.33203125 C-185.93381744 436.09549771 -187.86413286 431.7865741 -189.6640625 427.33203125 C-189.97085938 426.59597656 -190.27765625 425.85992188 -190.59375 425.1015625 C-194.34077678 415.11592929 -195.68930059 404.05814264 -195.8515625 393.45703125 C-196.2062867 386.710177 -198.15249609 383.39309241 -202.40234375 378.2734375 C-214.99381955 361.89799488 -219.55493352 340.52582783 -220.6640625 320.33203125 C-224.04333449 320.60492778 -225.32570944 320.93912739 -227.578125 323.5546875 C-233.53096293 332.32226617 -233.53096293 332.32226617 -235.3515625 342.30078125 C-234.62241754 344.45507318 -233.71949568 346.38067162 -232.6640625 348.39453125 C-229.83166522 353.81982163 -229.10205336 358.25400647 -229.6640625 364.33203125 C-230.99991398 368.26537173 -232.30460306 370.01341948 -235.4140625 372.76953125 C-239.44549912 374.70772193 -241.37618074 374.42349206 -245.6640625 373.33203125 C-247.33728789 372.68200124 -249.00533245 372.01820676 -250.6640625 371.33203125 C-251.17453125 372.23695313 -251.17453125 372.23695313 -251.6953125 373.16015625 C-255.13321928 378.82904508 -258.11751686 382.56771398 -264.6640625 384.33203125 C-269.99404683 385.21470381 -274.25754016 384.953129 -278.9765625 382.20703125 C-285.58095858 377.44014859 -288.78312719 372.11536355 -290.6640625 364.33203125 C-291.11867124 360.55138137 -291.18757917 356.82489911 -291.1640625 353.01953125 C-291.16051758 351.97716309 -291.15697266 350.93479492 -291.15332031 349.86083984 C-290.93675661 339.53640074 -288.81089131 330.12270201 -285.6640625 320.33203125 C-285.37660156 319.37554687 -285.08914063 318.4190625 -284.79296875 317.43359375 C-280.48230526 305.01723289 -271.78566559 293.56704681 -262.6640625 284.33203125 C-261.96925781 283.57664062 -261.27445313 282.82125 -260.55859375 282.04296875 C-255.95116373 277.15858939 -250.96671775 273.28417122 -245.40039062 269.57275391 C-242.20778378 267.43715879 -239.25695522 265.22639989 -236.4140625 262.64453125 C-228.05980224 255.06577194 -220.68588662 251.22491087 -209.34765625 250.87109375 C-205.94850077 250.18829396 -204.20006818 248.63415576 -201.6640625 246.33203125 C-202.29272217 246.03135742 -202.92138184 245.73068359 -203.5690918 245.42089844 C-216.54060297 239.14217923 -227.93677085 233.08324834 -237.6640625 222.33203125 C-238.69660156 221.22988281 -238.69660156 221.22988281 -239.75 220.10546875 C-243.50595131 215.72625914 -246.05977906 210.8788494 -248.5390625 205.70703125 C-248.83796387 205.08530029 -249.13686523 204.46356934 -249.44482422 203.82299805 C-251.363441 199.59655296 -252.2065599 195.89532645 -252.6640625 191.33203125 C-253.499375 191.21988281 -253.499375 191.21988281 -254.3515625 191.10546875 C-262.6567936 189.67449988 -268.0286248 185.94489883 -272.9765625 179.14453125 C-280.01994286 167.55270091 -280.65171422 152.37552419 -277.5390625 139.33203125 C-274.34726795 129.71231712 -269.77231519 123.02080133 -260.6640625 118.33203125 C-257.099432 116.75845562 -254.57585958 116.10849999 -250.6640625 116.33203125 C-250.56029297 115.77733154 -250.45652344 115.22263184 -250.34960938 114.65112305 C-249.23010279 109.11741135 -247.60081644 104.22993078 -245.1640625 99.14453125 C-244.64392578 98.05205078 -244.64392578 98.05205078 -244.11328125 96.9375 C-239.21972154 87.01204673 -230.73858694 71.36929347 -220.6640625 66.33203125 C-221.25408457 60.69321275 -222.74620529 55.8173314 -224.7265625 50.51953125 C-227.6640625 42.56744315 -227.6640625 42.56744315 -227.6640625 40.33203125 C-229.365625 40.48671875 -229.365625 40.48671875 -231.1015625 40.64453125 C-236.50438555 40.60628118 -240.48317954 38.68753695 -244.6640625 35.33203125 C-249.51177132 29.54114896 -252.06880041 24.3182392 -251.93359375 16.734375 C-251.12018467 9.48442452 -246.89166306 5.17149662 -241.46875 0.6796875 C-236.14518207 -3.29570413 -228.983302 -2.31593138 -222.6640625 -1.66796875 C-216.84503731 0.37393607 -213.56378882 3.88979397 -210.6015625 9.20703125 C-208.10655678 14.92582443 -207.72351713 19.48591998 -209.71484375 25.51171875 C-209.65517333 30.0007704 -209.01328923 30.57041274 -206.04296875 33.734375 C-204.4573587 35.26691024 -202.85090017 36.77810555 -201.2265625 38.26953125 C-200.41123047 39.04876953 -199.59589844 39.82800781 -198.75585938 40.63085938 C-196.74203945 42.5504655 -194.71202254 44.44899908 -192.6640625 46.33203125 C-191.7153125 45.89632812 -190.7665625 45.460625 -189.7890625 45.01171875 C-172.24327638 37.23749127 -153.41896295 32.24315033 -134.18359375 32.09375 C-132.67148567 32.08164238 -132.67148567 32.08164238 -131.12882996 32.06929016 C-128.99483938 32.0554978 -126.8608272 32.04475411 -124.72680664 32.03686523 C-122.58318434 32.02543301 -120.43958848 32.00512331 -118.29614258 31.9753418 C-95.07540965 31.65355569 -72.7289255 35.09172842 -51.703125 45.4140625 C-49.73280495 46.4688679 -49.73280495 46.4688679 -47.6640625 46.33203125 C-46.16356314 44.84841431 -46.16356314 44.84841431 -44.6015625 42.89453125 C-41.8211532 39.56744528 -38.87256858 36.68271461 -35.6640625 33.76953125 C-32.14098692 30.46277688 -32.14098692 30.46277688 -31.6015625 25.76953125 C-31.9521875 24.63515625 -32.3028125 23.50078125 -32.6640625 22.33203125 C-33.35751132 15.28196828 -31.86715242 10.11973438 -27.6640625 4.33203125 C-19.00252788 -3.17665463 -10.47255214 -4.55958809 0 0 Z " fill="#3B667B" transform="translate(824.6640625,166.66796875)"/>
<path d="M0 0 C0.94101562 0.20882812 1.88203125 0.41765625 2.8515625 0.6328125 C41.99948653 9.34460404 79.94309156 31.22240247 111 56 C112.01707031 56.80308594 113.03414062 57.60617188 114.08203125 58.43359375 C128.78521791 70.23400536 142.9214313 83.50571756 155 98 C155.71929688 98.83015625 156.43859375 99.6603125 157.1796875 100.515625 C210.67892421 163.07383789 236.30456662 246.81622687 230.75683594 328.58398438 C230.11993544 335.76855826 229.10858623 342.87542211 228 350 C227.71784255 351.98424617 227.43659831 353.96862241 227.15625 355.953125 C218.76890596 412.82182404 192.73868271 471.32548117 153.23046875 513.59375 C151.35754756 515.61427443 149.5529348 517.66833166 147.75390625 519.75390625 C143.91761396 524.15097014 139.8776488 528.31454011 135.75 532.4375 C135.00274658 533.18394775 134.25549316 533.93039551 133.4855957 534.69946289 C128.70794373 539.42453956 123.86546023 543.84309529 118.5703125 547.984375 C115.82436275 550.13773377 113.20351529 552.40695755 110.5625 554.6875 C81.86560811 578.51551049 48.21236458 595.21864218 13 607 C11.75863281 607.41894531 10.51726562 607.83789062 9.23828125 608.26953125 C6.17418056 609.25428064 3.10401727 610.14937988 0 611 C-0.68707031 611.19013672 -1.37414062 611.38027344 -2.08203125 611.57617188 C-22.59604716 617.18520008 -43.67211791 621.06011964 -64.96875 621.2734375 C-66.11021484 621.28596558 -67.25167969 621.29849365 -68.42773438 621.31140137 C-93.41815645 621.53247309 -117.51956123 621.38824216 -142 616 C-143.65032227 615.64711914 -143.65032227 615.64711914 -145.33398438 615.28710938 C-166.29739992 610.70570068 -186.44900597 603.79984547 -206 595 C-206.88913086 594.60329102 -207.77826172 594.20658203 -208.69433594 593.79785156 C-229.96459736 584.22808997 -249.76693956 572.56820456 -268 558 C-269.45019531 556.84951172 -269.45019531 556.84951172 -270.9296875 555.67578125 C-273.64747418 553.4818578 -276.32617595 551.24723104 -279 549 C-280.03886546 548.14819713 -281.07793781 547.29664655 -282.1171875 546.4453125 C-296.30945415 534.68814659 -309.78823627 521.6514893 -321 507 C-322.22783203 505.49759766 -322.22783203 505.49759766 -323.48046875 503.96484375 C-348.75996107 472.95409965 -366.11943221 437.65530192 -379 400 C-379.28456055 399.18692383 -379.56912109 398.37384766 -379.86230469 397.53613281 C-385.05201954 382.54128869 -387.41109663 366.61310866 -390 351 C-390.18369141 349.8951123 -390.36738281 348.79022461 -390.55664062 347.65185547 C-398.24714195 299.12663047 -392.30718153 247.13272984 -376 201 C-375.55599854 199.72431152 -375.55599854 199.72431152 -375.10302734 198.42285156 C-362.8661193 163.60947622 -344.41589568 131.47035388 -321 103 C-320.55930176 102.45633789 -320.11860352 101.91267578 -319.66455078 101.35253906 C-308.34644558 87.43959119 -295.68468702 73.96909266 -281.50390625 62.94921875 C-278.75099471 60.80615657 -276.13817163 58.53254465 -273.5 56.25 C-261.96488186 46.62992093 -249.21939989 38.46552208 -236.2578125 30.91015625 C-234.33719688 29.7840399 -232.42943948 28.63451315 -230.5546875 27.43359375 C-221.91598904 21.91024473 -212.39905233 18.02791769 -203 14 C-201.76467529 13.46922852 -201.76467529 13.46922852 -200.50439453 12.92773438 C-136.9352696 -14.11428873 -66.57727892 -17.86991097 0 0 Z M-127.44140625 8.44140625 C-130.13994184 9.03055219 -132.85052715 9.52069087 -135.56958008 10.00488281 C-160.40633901 14.47721047 -184.09660057 22.44277798 -207 33 C-207.70527832 33.32436035 -208.41055664 33.6487207 -209.13720703 33.98291016 C-232.80438715 45.01388404 -254.45032239 59.75343509 -274 77 C-274.77601563 77.66515625 -275.55203125 78.3303125 -276.3515625 79.015625 C-289.18751211 90.21951229 -301.69551183 102.41121281 -312 116 C-313.18722656 117.49660156 -313.18722656 117.49660156 -314.3984375 119.0234375 C-345.97588602 158.94163734 -365.7913067 206.1764856 -375 256 C-375.19062012 257.01819824 -375.38124023 258.03639648 -375.57763672 259.08544922 C-381.22458649 291.17455083 -380.38546705 327.11225576 -374 359 C-373.69467226 360.68454494 -373.39118862 362.36942552 -373.08984375 364.0546875 C-369.20507177 384.85089688 -362.43067901 404.64743369 -354 424 C-353.27052095 425.71731526 -352.54135004 427.43476144 -351.8125 429.15234375 C-339.04355906 458.81016176 -320.2317205 487.85511091 -297.26953125 510.71875 C-295 513 -295 513 -293 516 C-292.34 516 -291.68 516 -291 516 C-290.59587891 516.89138672 -290.59587891 516.89138672 -290.18359375 517.80078125 C-286.60499853 524.45011825 -279.50177953 529.1283013 -273.734375 533.7578125 C-271.36033807 535.70452278 -269.11719316 537.71804825 -266.875 539.8125 C-228.31135452 574.28812653 -177.03989286 593.53763938 -127 603 C-125.63512451 603.27118652 -125.63512451 603.27118652 -124.24267578 603.54785156 C-109.99020338 606.29196395 -95.64857532 606.28110593 -81.1875 606.3125 C-80.22627228 606.31626648 -79.26504456 606.32003296 -78.27468872 606.32391357 C-61.29519844 606.35760843 -44.86178394 605.03711692 -28.1875 601.75 C-27.08857422 601.53529053 -25.98964844 601.32058105 -24.85742188 601.09936523 C-14.38795307 598.98685168 -4.17956302 596.2178186 6 593 C7.2065625 592.61859863 7.2065625 592.61859863 8.4375 592.22949219 C13.65266021 590.5637734 18.83525893 588.81570932 24 587 C25.13695312 586.60167969 26.27390625 586.20335937 27.4453125 585.79296875 C36.31366534 582.53542882 44.65279477 578.39366878 53 574 C54.06976074 573.44119141 54.06976074 573.44119141 55.16113281 572.87109375 C67.38739593 566.43908729 78.77074339 559.03554248 90 551 C90.59039063 550.57831543 91.18078125 550.15663086 91.7890625 549.72216797 C110.27506056 536.42140306 128.48858488 520.71264317 142.6640625 502.87109375 C144.52378868 500.5853099 146.42488451 498.38329454 148.3828125 496.18359375 C151.91736618 492.16215176 155.12740286 487.97150775 158.25 483.625 C158.80792236 482.84898437 159.36584473 482.07296875 159.94067383 481.2734375 C165.24000744 473.8093754 170.08524651 466.11513602 174.70458984 458.21484375 C175.55226412 456.76552203 176.40651534 455.32002209 177.26806641 453.87890625 C185.24034626 440.51608368 191.20963644 426.420831 197 412 C197.32516602 411.19723633 197.65033203 410.39447266 197.98535156 409.56738281 C211.22680553 376.65035237 216.21968574 341.16512527 216.25 305.875 C216.25200912 304.48887009 216.25200912 304.48887009 216.25405884 303.07473755 C216.24919099 287.52833181 215.37263407 272.38617247 213 257 C212.8158252 255.74413086 212.8158252 255.74413086 212.62792969 254.46289062 C211.18199774 244.7357121 208.87087354 235.40951792 206 226 C205.60004895 224.60366799 205.20303598 223.2064919 204.80859375 221.80859375 C202.31029836 213.0028187 199.42730746 204.49600615 196 196 C195.35804688 194.30037109 195.35804688 194.30037109 194.703125 192.56640625 C184.30782464 165.43934435 169.14258853 138.76230073 150.23657227 116.64453125 C148.09780425 114.1156441 146.03808307 111.53725991 143.9765625 108.9453125 C139.19240077 103.09168065 134.03305919 97.72821593 128.67138672 92.41064453 C127.12620622 90.87619784 125.59203991 89.33131998 124.05859375 87.78515625 C117.69802184 81.41563026 111.08670476 75.56720277 104 70 C103.39365723 69.51402344 102.78731445 69.02804688 102.16259766 68.52734375 C77.09426918 48.47898548 48.35747217 32.44225549 18 22 C16.77796875 21.57291748 16.77796875 21.57291748 15.53125 21.13720703 C-3.67034982 14.44736394 -23.46043249 8.52321874 -43.86328125 7.2109375 C-46 7 -46 7 -49 6 C-51.53900163 5.76870114 -54.05731369 5.58552607 -56.6015625 5.44921875 C-57.73097763 5.38646004 -57.73097763 5.38646004 -58.88320923 5.32243347 C-67.0463484 4.89989901 -75.202278 4.80237731 -83.375 4.8125 C-84.51338821 4.81240936 -84.51338821 4.81240936 -85.67477417 4.81231689 C-99.75108658 4.82822003 -113.64635839 5.35724477 -127.44140625 8.44140625 Z " fill="#DBE0E5" transform="translate(785,79)"/>
<path d="M0 0 C1.06476562 0.26039063 2.12953125 0.52078125 3.2265625 0.7890625 C22.78530436 5.18149182 43.00316335 5.64337814 62.9765625 5.6640625 C63.83930786 5.66573425 64.70205322 5.66740601 65.59094238 5.66912842 C97.61724355 6.68283325 97.61724355 6.68283325 127.8515625 -0.5859375 C132.09608037 -1.29335714 134.43922374 -0.498108 137.8515625 1.9140625 C147.38954555 9.70795722 153.23010675 21.25110483 154.8515625 33.4140625 C155.16596391 39.33253772 155.19158401 45.23847497 155.1640625 51.1640625 C155.16082977 52.40260483 155.16082977 52.40260483 155.15753174 53.66616821 C155.01909688 86.66127636 148.4203359 115.2053858 124.9765625 139.6015625 C105.84134372 158.18591892 81.97995586 165.02542423 55.80078125 164.69140625 C32.17103243 163.93377672 11.07914416 152.21146764 -5.1484375 135.4140625 C-25.50528576 111.91266045 -31.31927999 82.87652151 -31.3359375 52.4765625 C-31.34818359 51.30416016 -31.36042969 50.13175781 -31.37304688 48.92382812 C-31.40056421 32.31253142 -29.16629638 17.96813879 -17.4296875 5.5703125 C-16.676875 4.85875 -15.9240625 4.1471875 -15.1484375 3.4140625 C-14.375 2.66125 -13.6015625 1.9084375 -12.8046875 1.1328125 C-8.53408694 -1.63051728 -4.84033245 -0.90080629 0 0 Z " fill="#B5E0F1" transform="translate(642.1484375,416.5859375)"/>
<path d="M0 0 C0.81335815 -0.00367584 1.62671631 -0.00735168 2.46472168 -0.01113892 C14.1285899 -0.03867721 25.50026188 0.80079864 37.0625 2.3125 C37.99457275 2.42746826 38.92664551 2.54243652 39.88696289 2.66088867 C57.9932024 4.98858373 76.31262203 10.19751148 89.21484375 23.89453125 C103.062417 42.01640829 103.76619235 66.54979331 101.75390625 88.3828125 C99.94838967 101.64457145 95.07832494 113.98613533 84.5 122.62109375 C74.42399916 129.61293408 63.90415163 132.82349042 52.0625 135.3125 C51.15757812 135.52648437 50.25265625 135.74046875 49.3203125 135.9609375 C37.88225572 138.54856346 25.94569546 138.47349445 14.2734375 138.515625 C13.00891754 138.52132507 11.74439758 138.52702515 10.44155884 138.53289795 C7.78440788 138.54227394 5.12736773 138.54920869 2.47021484 138.55273438 C-0.20765878 138.55711025 -2.88520862 138.57099174 -5.56298828 138.59375 C-21.28741508 138.71745784 -36.49109741 138.44163497 -51.9375 135.3125 C-53.05483772 135.08776505 -53.05483772 135.08776505 -54.19474792 134.85848999 C-66.73382103 132.28841156 -80.00862573 128.01360124 -88.9375 118.3125 C-89.45570313 117.75304687 -89.97390625 117.19359375 -90.5078125 116.6171875 C-100.57592684 104.52533158 -101.13883086 89.92626977 -101.17773438 74.95166016 C-101.18738794 72.71348137 -101.21845858 70.47624353 -101.25 68.23828125 C-101.378068 50.76611262 -97.96587566 34.62602464 -86.078125 21.21484375 C-64.70273405 0.36178378 -27.78109056 0.05996729 0 0 Z " fill="#FCFDFD" transform="translate(703.9375,251.6875)"/>
<path d="M0 0 C0.19634033 0.65484375 0.39268066 1.3096875 0.5949707 1.984375 C1.49800909 4.99043401 2.40522363 7.99521749 3.3125 11 C3.7755957 12.54494141 3.7755957 12.54494141 4.24804688 14.12109375 C5.97676618 19.83496598 7.82779593 25.43915757 10 31 C9.03320312 31.26683594 8.06640625 31.53367188 7.0703125 31.80859375 C-11.84028945 37.23672485 -27.73798344 43.93677414 -38.453125 61.36328125 C-49.38421193 81.4804322 -50.86780166 112.76915734 -44.76367188 134.86132812 C-40.43027935 148.80163152 -31.92231942 159.90231579 -19 167 C5.66570996 178.46278794 33.81553533 179.41462182 60.5625 179.3125 C61.56069763 179.31067719 62.55889526 179.30885437 63.58734131 179.30697632 C113.3841056 179.2983892 113.3841056 179.2983892 155.953125 156.33203125 C162.81956617 148.50900572 165.61227339 140.02845177 168 130 C168.26478149 128.90594849 168.26478149 128.90594849 168.53491211 127.78979492 C169.12600121 124.24419118 169.18180877 120.74827053 169.203125 117.1640625 C169.20882507 116.40765472 169.21452515 115.65124695 169.22039795 114.87191772 C169.22982248 113.26993188 169.23637179 111.66792688 169.24023438 110.06591797 C169.24983086 107.66727537 169.28083092 105.26953158 169.3125 102.87109375 C169.44879058 83.1557496 165.5445934 64.54754892 152 49.4375 C142.42603471 40.40822421 130.37667567 36.47085035 118 33 C115.99597492 32.34553235 113.99439097 31.68326357 112 31 C112.47050781 29.76765625 112.94101562 28.5353125 113.42578125 27.265625 C116.8247706 18.26444599 120.02235213 9.43620553 122 0 C127.63759952 0.48752826 131.5183704 2.69170675 136.25 5.5625 C137.3793396 6.24022461 137.3793396 6.24022461 138.53149414 6.93164062 C144.41628468 10.52266074 149.87972337 14.36694693 155 19 C155.82757812 19.74636719 156.65515625 20.49273437 157.5078125 21.26171875 C179.62760367 42.26537367 189.22212212 71.74253754 190.25 101.6640625 C190.71881562 126.72733459 187.16790171 150.79798922 169.39453125 169.69140625 C142.1201124 195.98697157 98.30590176 197.57129478 62.79638672 197.44604492 C59.13321859 197.43751913 55.47161045 197.46649023 51.80859375 197.49804688 C29.37543854 197.56385384 6.18974666 195.93536592 -15 188 C-15.67417969 187.74879395 -16.34835937 187.49758789 -17.04296875 187.23876953 C-35.51915445 180.16287571 -51.24002427 169.1077535 -60.12744141 150.96044922 C-64.75015373 140.57422091 -67.14067844 129.78764972 -67.203125 118.4453125 C-67.20882507 117.62610321 -67.21452515 116.80689392 -67.22039795 115.96286011 C-67.22981502 114.22981033 -67.23636879 112.49674292 -67.24023438 110.76367188 C-67.24984223 108.16763036 -67.28085532 105.57241532 -67.3125 102.9765625 C-67.48639196 75.69687493 -59.52137425 50.15274715 -42 29 C-41.32582031 28.15050781 -40.65164063 27.30101562 -39.95703125 26.42578125 C-31.83768611 16.72217365 -13.48212802 0 0 0 Z " fill="#87BCD7" transform="translate(643,218)"/>
<path d="M0 0 C19.55874186 4.39242932 39.77660085 4.85431564 59.75 4.875 C60.61274536 4.87667175 61.47549072 4.87834351 62.36437988 4.88006592 C94.39068105 5.89377075 94.39068105 5.89377075 124.625 -1.375 C128.86951787 -2.08241964 131.21266124 -1.2871705 134.625 1.125 C144.16298305 8.91889472 150.00354425 20.46204233 151.625 32.625 C151.93940141 38.54347522 151.96502151 44.44941247 151.9375 50.375 C151.93426727 51.61354233 151.93426727 51.61354233 151.93096924 52.87710571 C151.79253438 85.87221386 145.1937734 114.4163233 121.75 138.8125 C102.61478122 157.39685642 78.75339336 164.23636173 52.57421875 163.90234375 C28.97382675 163.14565548 7.8053101 151.44368348 -8.375 134.625 C-13.62027661 128.3967376 -18.07831615 122.07837218 -21.375 114.625 C-20.715 114.625 -20.055 114.625 -19.375 114.625 C-18.6325 115.8625 -18.6325 115.8625 -17.875 117.125 C-9.09582787 130.77436981 12.87422863 140.2683752 28.2265625 143.765625 C51.3090939 148.0629978 75.04530178 144.73701846 94.625 131.625 C98.99762081 128.32240197 102.8365541 124.57252527 106.625 120.625 C107.29917969 119.94695312 107.97335937 119.26890625 108.66796875 118.5703125 C126.10572395 100.01623301 129.86035574 75.10199243 129.9375 50.75 C129.94313965 49.44281006 129.9487793 48.13562012 129.95458984 46.78881836 C129.87274894 35.86999354 128.90216252 25.73465687 124.625 15.625 C120.62873191 16.05937697 117.01412197 16.7633083 113.1875 18 C69.01437673 31.59683224 20.36272648 25.79577802 -21.375 7.625 C-17.52912358 -2.75886634 -9.27499031 -2.26821797 0 0 Z " fill="#86BCD6" transform="translate(645.375,417.375)"/>
<path d="M0 0 C5.4808134 4.6526016 9.3138955 9.33762649 12.19921875 15.92578125 C12.56273437 16.66054688 12.92625 17.3953125 13.30078125 18.15234375 C16.12058408 26.8569525 15.34335077 39.09766219 11.71484375 47.40234375 C4.23839402 59.85024717 -6.12566507 66.19548256 -19.72265625 70.1640625 C-24.96863641 71.46224287 -29.30429747 71.93498996 -34.71386719 71.50585938 C-44.66371418 70.86450058 -51.47835934 73.45372806 -60.07470703 78.36889648 C-67.80574896 82.78382361 -67.80574896 82.78382361 -72.80078125 81.92578125 C-74.80078125 79.92578125 -74.80078125 79.92578125 -74.8125 77.90234375 C-74.70550781 77.12632812 -74.59851563 76.3503125 -74.48828125 75.55078125 C-74.38902344 74.77992188 -74.28976562 74.0090625 -74.1875 73.21484375 C-73.82660947 71.07866341 -73.34101312 69.02239542 -72.80078125 66.92578125 C-72.04791987 63.63944052 -72.04791987 63.63944052 -72.80078125 59.92578125 C-74.63271615 57.50640879 -76.652112 55.38318423 -78.7578125 53.19921875 C-85.83476823 45.32390664 -86.50330969 35.85563635 -86.26171875 25.6875 C-85.64842589 16.1852699 -80.8711842 8.48717006 -74.11328125 1.92578125 C-53.06308345 -15.18147919 -21.86482802 -16.19278059 0 0 Z " fill="#B6EED9" transform="translate(739.80078125,462.07421875)"/>
<path d="M0 0 C0.30292969 1.23234375 0.60585938 2.4646875 0.91796875 3.734375 C3.09795138 12.40956543 5.36355945 20.68990119 9.08203125 28.84765625 C10 31 10 31 10 33 C10.66 32.67 11.32 32.34 12 32 C24.76547884 29.32272642 37.83270294 29.69437296 50.80615234 29.73925781 C54.49202933 29.74997682 58.17741905 29.73931465 61.86328125 29.7265625 C90.1310388 29.71034627 90.1310388 29.71034627 100 33 C100.67044282 30.98867153 101.34023142 28.97712387 102.0078125 26.96484375 C102.74350208 24.76646425 103.48997179 22.57168602 104.2421875 20.37890625 C106.54126573 13.64576934 108.64914146 6.99990336 110 0 C112.64 0.66 115.28 1.32 118 2 C117.34 2.33 116.68 2.66 116 3 C115.6200355 5.32619486 115.29525962 7.66154382 115 10 C114.44125984 12.30316367 113.83619085 14.59553654 113.1875 16.875 C112.87167969 18.00679687 112.55585937 19.13859375 112.23046875 20.3046875 C110.77246932 24.68331435 108.94228886 28.81834536 107 33 C107.57854736 33.18062988 108.15709473 33.36125977 108.75317383 33.54736328 C128.19531215 39.67151112 146.19985353 46.53115447 156.3671875 65.55859375 C161.65458843 76.58704835 164.10954917 87.77742733 164.23828125 99.99609375 C164.246353 100.74729996 164.25442474 101.49850616 164.26274109 102.2724762 C164.27650021 103.85830437 164.28725846 105.44416115 164.29516602 107.0300293 C164.30660664 108.61898764 164.32693074 110.20791001 164.35668945 111.79663086 C164.70317118 130.36534131 161.7555239 147.73242699 148.5078125 161.6796875 C124.43496547 183.9526955 85.2730492 183.26658279 54.5625 183.3125 C53.60011414 183.31608521 52.63772827 183.31967041 51.6461792 183.32336426 C20.74205183 183.3852845 -15.42845857 182.44183476 -39.25 160.1875 C-52.30260025 146.42437514 -54.23485676 128.78354001 -54.25 110.625 C-54.25067474 109.90413208 -54.25134949 109.18326416 -54.25204468 108.44055176 C-54.22182968 88.18012204 -51.34539285 68.26497519 -36.90234375 52.74609375 C-26.03206508 42.64267777 -11.75013043 35.97132246 3 34 C2.80365967 33.45698242 2.60731934 32.91396484 2.4050293 32.35449219 C-4.7823929 12.39107325 -4.7823929 12.39107325 -7 2 C-2.25 0 -2.25 0 0 0 Z M-31.33203125 58.1015625 C-43.89888645 72.40482159 -46.36565497 88.27116369 -46.26074219 106.75195312 C-46.25001735 108.99636848 -46.26069641 111.23998375 -46.2734375 113.484375 C-46.29104996 129.95122981 -43.88189042 144.69792485 -32 157 C-21.16441576 166.61189348 -6.96752935 170.59095344 7 173 C8.03310303 173.18248291 9.06620605 173.36496582 10.13061523 173.55297852 C23.72089163 175.58847109 37.38665 175.26467462 51.09631348 175.19561768 C53.80090992 175.18479538 56.5054553 175.18514983 59.21006966 175.18575573 C62.49683153 175.18541465 65.78356336 175.17655553 69.0703125 175.16796875 C70.26028839 175.16685593 71.45026428 175.1657431 72.67630005 175.16459656 C84.03669782 175.10149264 95.37980784 174.72373019 106.5 172.25 C107.30115234 172.0744458 108.10230469 171.8988916 108.92773438 171.71801758 C124.56464564 168.15353811 139.46224444 162.63465511 149 149 C160.15553354 129.05094639 159.70145124 101.6427089 154 80 C149.53636709 66.11841823 141.23015537 55.53559064 128.1875 48.75 C118.50427055 44.27150638 109.04298385 41.67288093 98.5625 39.8125 C97.62172607 39.64540527 96.68095215 39.47831055 95.71166992 39.30615234 C82.27333085 37.05697071 68.84031169 36.7596741 55.25 36.75 C53.96458313 36.74898788 53.96458313 36.74898788 52.65319824 36.74795532 C25.43162181 36.78184452 -10.39834443 37.6761992 -31.33203125 58.1015625 Z " fill="#3D677D" transform="translate(649,215)"/>
<path d="M0 0 C7.26 0 14.52 0 22 0 C22.70125 2.43375 23.4025 4.8675 24.125 7.375 C27.08918934 17.0286701 30.43868878 25.56992597 39.51171875 30.9375 C46.19218691 33.79007039 53.11916163 33.77156389 59.86328125 31.15625 C63.76845887 29.04302774 66.87075518 26.11508534 70 23 C70.85464844 22.14921875 70.85464844 22.14921875 71.7265625 21.28125 C72.35691406 20.64703125 72.35691406 20.64703125 73 20 C73 20.66 73 21.32 73 22 C73.87398437 22.03738281 74.74796875 22.07476563 75.6484375 22.11328125 C107.16719959 23.79824652 107.16719959 23.79824652 116 30 C116.74609375 32.12890625 116.74609375 32.12890625 117 34 C88.2729648 49.71856643 48.09929203 46.36642699 16.17358398 46.31567383 C13.02858112 46.31105728 9.88396651 46.31793651 6.73901367 46.33618164 C-75.78513721 46.80990853 -75.78513721 46.80990853 -95 34 C-93.65527829 30.74686011 -92.59421452 29.37309567 -89.375 27.9375 C-83.24182817 25.44711972 -76.81664463 24.34227877 -70.30322266 23.35107422 C-68.69950209 23.10662328 -67.09768811 22.84946797 -65.49755859 22.58251953 C-62.93992762 22.16375164 -60.37940278 21.79457831 -57.8125 21.4375 C-56.61004639 21.23616455 -56.61004639 21.23616455 -55.38330078 21.03076172 C-53.10968316 20.7495143 -51.25661029 20.59497474 -49 21 C-46.1953125 23.79296875 -46.1953125 23.79296875 -44 27 C-38.06704291 32.07191163 -31.93272799 32.7259216 -24.30859375 32.4140625 C-17.21796684 31.5266877 -12.68199968 28.56291694 -8.30859375 22.96875 C-3.63152159 15.93219964 -1.87372995 8.1507253 0 0 Z " fill="#D7DDE2" transform="translate(693,589)"/>
<path d="M0 0 C0.495 0.495 0.495 0.495 1 1 C0.58195164 7.46708139 -0.74392323 13.09054134 -2.875 19.1875 C-3.13152344 19.95513672 -3.38804687 20.72277344 -3.65234375 21.51367188 C-5.1385022 25.87132743 -6.89674807 29.89349401 -9 34 C-9.97815674 33.85852539 -10.95631348 33.71705078 -11.96411133 33.57128906 C-24.98409056 31.83567099 -37.91212396 31.69339789 -51.0324707 31.73925781 C-54.69173632 31.75001245 -58.35051449 31.73928607 -62.00976562 31.7265625 C-73.86228421 31.72053094 -85.30609764 32.00771393 -97 34 C-97.66 34 -98.32 34 -99 34 C-109.27116867 9.99641951 -109.27116867 9.99641951 -109 1 C-75.29199041 -12.33879523 -34.05547039 -11.76189333 0 0 Z " fill="#B6E0F2" transform="translate(758,214)"/>
<path d="M0 0 C5.63759952 0.48752826 9.5183704 2.69170675 14.25 5.5625 C15.00289307 6.01431641 15.75578613 6.46613281 16.53149414 6.93164062 C22.41628468 10.52266074 27.87972337 14.36694693 33 19 C33.82757812 19.74636719 34.65515625 20.49273437 35.5078125 21.26171875 C57.66693015 42.30271579 67.24727848 71.83334121 68.25 101.8046875 C68.58570377 120.07436405 66.88991886 133.09514478 54 147 C51.92024237 148.93059954 49.74036704 150.69722611 47.5 152.4375 C46.89704102 152.90833008 46.29408203 153.37916016 45.67285156 153.86425781 C39.89088429 158.26770295 33.74267694 162.22847022 27 165 C26.34 164.67 25.68 164.34 25 164 C26.08667969 163.09121094 26.08667969 163.09121094 27.1953125 162.1640625 C37.94992349 152.84339964 42.66736536 143.99706547 46 130 C46.26478149 128.90594849 46.26478149 128.90594849 46.53491211 127.78979492 C47.12600121 124.24419118 47.18180877 120.74827053 47.203125 117.1640625 C47.21167511 116.02945084 47.21167511 116.02945084 47.22039795 114.87191772 C47.22982248 113.26993188 47.23637179 111.66792688 47.24023438 110.06591797 C47.24983086 107.66727537 47.28083092 105.26953158 47.3125 102.87109375 C47.44879058 83.1557496 43.5445934 64.54754892 30 49.4375 C20.42603471 40.40822421 8.37667567 36.47085035 -4 33 C-6.00402508 32.34553235 -8.00560903 31.68326357 -10 31 C-9.29423828 29.15148437 -9.29423828 29.15148437 -8.57421875 27.265625 C-5.1752294 18.26444599 -1.97764787 9.43620553 0 0 Z " fill="#B5DFF2" transform="translate(765,218)"/>
<path d="M0 0 C0.19634033 0.65484375 0.39268066 1.3096875 0.5949707 1.984375 C1.49800909 4.99043401 2.40522363 7.99521749 3.3125 11 C3.7755957 12.54494141 3.7755957 12.54494141 4.24804688 14.12109375 C5.97676618 19.83496598 7.82779593 25.43915757 10 31 C9.03320312 31.26683594 8.06640625 31.53367188 7.0703125 31.80859375 C-11.84028945 37.23672485 -27.73798344 43.93677414 -38.453125 61.36328125 C-49.38421193 81.4804322 -50.86780166 112.76915734 -44.76367188 134.86132812 C-41.86411067 144.18906909 -37.82461438 150.71277606 -31.0859375 157.7734375 C-29.22112708 159.76396548 -27.58733457 161.78581993 -26 164 C-41.50563582 159.20444253 -56.15122424 147.32758339 -64 133 C-64 132.34 -64 131.68 -64 131 C-64.66 131 -65.32 131 -66 131 C-67.14359084 126.88310146 -67.18004964 122.88791322 -67.203125 118.640625 C-67.21167511 117.40756622 -67.21167511 117.40756622 -67.22039795 116.14959717 C-67.22983976 114.40459472 -67.23637868 112.65957451 -67.24023438 110.91455078 C-67.24981394 108.30076704 -67.28079003 105.68781379 -67.3125 103.07421875 C-67.4857761 75.7527838 -59.55221999 50.18998579 -42 29 C-41.32582031 28.15050781 -40.65164063 27.30101562 -39.95703125 26.42578125 C-31.83768611 16.72217365 -13.48212802 0 0 0 Z " fill="#B6DFF1" transform="translate(643,218)"/>
<path d="M0 0 C3.86983673 2.0617312 6.3283469 4.97146662 8 9 C10.53889482 22.54968076 2.79286395 38.4152145 -4.515625 49.24609375 C-18.32455931 68.04903585 -36.70628842 79.6106112 -59 86 C-58.97381592 85.42668945 -58.94763184 84.85337891 -58.9206543 84.26269531 C-58.45469266 72.49922826 -58.46938264 63.57163908 -64 53 C-64.66015625 50.69140625 -64.66015625 50.69140625 -65 49 C-64.26136719 48.74347656 -63.52273438 48.48695313 -62.76171875 48.22265625 C-52.93758078 44.51519885 -43.99589977 38.89745825 -37.9440918 30.10107422 C-36.03579214 25.85415753 -36.61670155 21.30326108 -36.875 16.75 C-36.96932288 14.78706437 -37.05065383 12.82344892 -37.1171875 10.859375 C-37.18848877 9.56725098 -37.18848877 9.56725098 -37.26123047 8.24902344 C-37 6 -37 6 -35.61767578 4.18847656 C-34 3 -34 3 -32 3.125 C-29.64411718 4.15569873 -28.55925335 4.94462058 -27 7 C-25.8125 10.1875 -25.8125 10.1875 -25 13 C-22.65058851 13.40259881 -22.65058851 13.40259881 -20 13 C-18.00822887 10.91892349 -18.00822887 10.91892349 -16.4375 8.1875 C-12.07944832 1.21260435 -8.33121659 -1.55939583 0 0 Z " fill="#B5DFF2" transform="translate(885,380)"/>
<path d="M0 0 C1.30222496 2.60444992 0.9819264 4.80883515 0.88305664 7.66235352 C0.5564338 18.19452742 1.65402131 26.42565057 8.75 34.6875 C9.81770012 35.80679067 10.89539442 36.9171142 12 38 C10.75262312 40.55353069 9.43674221 43.06446594 8.08984375 45.56640625 C7.73986328 46.21673828 7.38988281 46.86707031 7.02929688 47.53710938 C6.29892081 48.89202883 5.56713965 50.24619176 4.83398438 51.59960938 C1.86717185 57.12193878 0.02219959 61.67550373 1 68 C1.77301861 69.85956925 2.61145119 71.69278209 3.5 73.5 C5.90389837 78.39632557 6.68919777 81.5848747 6 87 C4 89 4 89 1.75 89.0625 C-1.83391041 87.67780734 -3.25129913 85.55430563 -5.47265625 82.49609375 C-7.11991692 80.5334928 -7.11991692 80.5334928 -11 81 C-11.24234375 81.80824219 -11.4846875 82.61648438 -11.734375 83.44921875 C-15.12233122 94.25158684 -15.12233122 94.25158684 -19 98 C-22.49887916 99.74943958 -26.18208741 99.55276176 -30 99 C-35.51817424 95.72997082 -37.36215205 91.92688861 -39 86 C-39.2784375 85.08927734 -39.2784375 85.08927734 -39.5625 84.16015625 C-43.55654369 64.43956555 -35.48960715 42.50300808 -25 26 C-18.76450061 16.76430942 -10.18526515 5.09263257 0 0 Z " fill="#B7E0F1" transform="translate(581,444)"/>
<path d="M0 0 C7.91673684 7.7505458 11.33528652 16.95876276 11.5 27.9375 C11.45127428 35.12582596 9.79784166 41.40508751 7 48 C2.8212549 48 1.72616492 46.29036666 -1.25 43.4375 C-2.16265625 42.59058594 -3.0753125 41.74367187 -4.015625 40.87109375 C-6 38 -6 38 -5.8203125 34.3984375 C-5.54960938 33.27695313 -5.27890625 32.15546875 -5 31 C-4.30068146 23.89026148 -5.89506835 18.89452008 -10 13 C-13.41406876 9.24116074 -16.63565588 8.16249163 -21.640625 7.56640625 C-28.82325239 7.33402713 -33.21745044 7.41728781 -39 12 C-43.59950531 16.36506451 -46.01706914 20.88103705 -46.4375 27.1875 C-46.2579513 33.51395126 -43.85834829 39.28742114 -39.23828125 43.671875 C-34.20342003 47.14419308 -28.97747128 48.08677522 -23 49 C-20.525 56.425 -20.525 56.425 -18 64 C-36.82575711 64.77810248 -36.82575711 64.77810248 -44 60 C-44.75539063 59.51402344 -45.51078125 59.02804688 -46.2890625 58.52734375 C-53.33535121 53.54309605 -60.19103 46.25159293 -61.78515625 37.45703125 C-62.63420309 27.74702283 -63.34068186 18.57465876 -58 10 C-57.401875 8.96875 -56.80375 7.9375 -56.1875 6.875 C-50.39779213 -0.73433034 -43.99584295 -6.60744938 -34.36328125 -8.68359375 C-21.29215047 -10.43361291 -10.54230798 -7.9765476 0 0 Z " fill="#CBF6DD" transform="translate(620,158)"/>
<path d="M0 0 C4.99144098 3.8493316 8.32947277 7.81209098 11.25 13.375 C11.86875 14.53 12.4875 15.685 13.125 16.875 C16.36199536 26.62498602 15.33216383 38.63383168 10.83984375 47.73046875 C5.28621437 56.96832401 -2.20816598 63.34475621 -12.75 66.375 C-18.38536281 67.33240057 -24.04658229 67.42333405 -29.75 67.375 C-29.29548816 65.64482492 -28.83621143 63.91590123 -28.375 62.1875 C-28.11976563 61.22457031 -27.86453125 60.26164062 -27.6015625 59.26953125 C-27.32054687 58.31433594 -27.03953125 57.35914063 -26.75 56.375 C-26.49476563 55.45203125 -26.23953125 54.5290625 -25.9765625 53.578125 C-24.75 51.375 -24.75 51.375 -22.359375 50.58984375 C-21.41578125 50.49832031 -20.4721875 50.40679687 -19.5 50.3125 C-13.30840176 49.43839201 -9.77757762 47.57154242 -5.5 42.9375 C-1.61445674 37.24795452 -0.93373078 32.16716611 -1.75 25.375 C-3.37865681 19.7231207 -5.56612104 15.43820121 -10.75 12.375 C-15.92865005 9.81351718 -20.97418384 8.36563407 -26.75 9.375 C-33.43847511 11.68308232 -38.13836348 15.42959532 -41.5625 21.6875 C-43.28740013 27.04376884 -43.24438265 31.32952108 -41.92578125 36.78515625 C-41.75 40.375 -41.75 40.375 -43.83984375 43.24609375 C-44.77957031 44.09300781 -45.71929688 44.93992188 -46.6875 45.8125 C-47.62464844 46.67746094 -48.56179688 47.54242188 -49.52734375 48.43359375 C-50.26082031 49.07425781 -50.99429688 49.71492188 -51.75 50.375 C-56.76332766 45.82134708 -58.47416745 40.10055334 -59.14453125 33.4765625 C-59.46011052 25.73526588 -58.91457572 19.09346187 -54.75 12.375 C-54.193125 11.364375 -53.63625 10.35375 -53.0625 9.3125 C-39.6830735 -7.68298772 -18.43091095 -12.45264777 0 0 Z " fill="#CAF6DC" transform="translate(835.75,155.625)"/>
<path d="M0 0 C5.4808134 4.6526016 9.3138955 9.33762649 12.19921875 15.92578125 C12.56273437 16.66054688 12.92625 17.3953125 13.30078125 18.15234375 C16.12058408 26.8569525 15.34335077 39.09766219 11.71484375 47.40234375 C4.23839402 59.85024717 -6.12566507 66.19548256 -19.72265625 70.1640625 C-24.96863641 71.46224287 -29.30429747 71.93498996 -34.71386719 71.50585938 C-44.66371418 70.86450058 -51.47835934 73.45372806 -60.07470703 78.36889648 C-67.80574896 82.78382361 -67.80574896 82.78382361 -72.80078125 81.92578125 C-74.80078125 79.92578125 -74.80078125 79.92578125 -74.8125 77.90234375 C-74.70550781 77.12632812 -74.59851563 76.3503125 -74.48828125 75.55078125 C-74.38902344 74.77992188 -74.28976562 74.0090625 -74.1875 73.21484375 C-73.82660947 71.07866341 -73.34101312 69.02239542 -72.80078125 66.92578125 C-72.04791987 63.63944052 -72.04791987 63.63944052 -72.80078125 59.92578125 C-74.63271615 57.50640879 -76.652112 55.38318423 -78.7578125 53.19921875 C-85.83476823 45.32390664 -86.50330969 35.85563635 -86.26171875 25.6875 C-85.64842589 16.1852699 -80.8711842 8.48717006 -74.11328125 1.92578125 C-53.06308345 -15.18147919 -21.86482802 -16.19278059 0 0 Z M-71.71484375 10.94140625 C-76.87456898 17.39741713 -79.45922726 23.97600926 -79.140625 32.28515625 C-77.925471 41.72704253 -73.70444626 48.50029218 -66.80078125 54.92578125 C-66.14078125 55.25578125 -65.48078125 55.58578125 -64.80078125 55.92578125 C-64.68939966 61.38347936 -64.88420144 66.54087484 -65.80078125 71.92578125 C-62.81566791 71.11899386 -60.23962077 70.23134358 -57.69140625 68.45703125 C-51.21270425 64.08287576 -46.13902841 63.55715608 -38.55078125 63.80078125 C-24.50844587 64.2481081 -12.45816329 61.94379575 -1.84375 52.11328125 C4.08366315 45.92381405 7.32307375 39.0285813 7.69921875 30.42578125 C7.27854976 20.80467427 3.20367638 13.38714972 -3.80078125 6.92578125 C-15.56109115 -3.01639855 -29.63270042 -4.18181418 -44.42919922 -3.29296875 C-55.21672497 -2.29794887 -64.32079126 3.15501628 -71.71484375 10.94140625 Z " fill="#39677B" transform="translate(739.80078125,462.07421875)"/>
<path d="M0 0 C0.81335815 -0.00367584 1.62671631 -0.00735168 2.46472168 -0.01113892 C14.1285899 -0.03867721 25.50026188 0.80079864 37.0625 2.3125 C37.99457275 2.42746826 38.92664551 2.54243652 39.88696289 2.66088867 C57.9932024 4.98858373 76.31262203 10.19751148 89.21484375 23.89453125 C97.09999418 34.21357589 101.81304199 47.30310553 101.0625 60.3125 C100.7325 60.3125 100.4025 60.3125 100.0625 60.3125 C99.84335937 59.35730469 99.62421875 58.40210938 99.3984375 57.41796875 C95.89543993 42.84799561 90.42371186 31.42470906 77.37060547 23.16552734 C63.2430121 14.74429616 47.19410582 12.12842297 31.0625 10.3125 C30.21888916 10.21533691 29.37527832 10.11817383 28.50610352 10.01806641 C19.46702576 9.11837841 10.42801573 9.16090754 1.35424805 9.18212891 C-1.36610504 9.18748249 -4.08629257 9.18215841 -6.80664062 9.17578125 C-22.28535676 8.23675369 -22.28535676 8.23675369 -36.9375 11.3125 C-38.82938391 11.60966995 -40.7262928 11.87510865 -42.625 12.125 C-61.06518196 14.91341604 -78.99981193 20.63868954 -90.8125 35.9375 C-96.09623396 44.01264059 -98.17544948 53.78686853 -98.9375 63.3125 C-99.5975 63.3125 -100.2575 63.3125 -100.9375 63.3125 C-101.86450494 47.86241765 -96.28786311 32.73297266 -86.078125 21.21484375 C-64.70273405 0.36178378 -27.78109056 0.05996729 0 0 Z " fill="#D3DEE4" transform="translate(703.9375,251.6875)"/>
<path d="M0 0 C-0.04731045 15.82534411 -3.66305812 34.3785037 -15.05078125 46.11328125 C-19.77308799 50.4211991 -23.16892201 52.44975589 -29.8125 52.33984375 C-35.22345487 51.49921326 -39.48274385 48.01955717 -42.8125 43.8125 C-46.74114634 37.73371613 -48.19749901 31.16193764 -48 24 C-47.44763672 23.83508057 -46.89527344 23.67016113 -46.32617188 23.50024414 C-30.03120485 18.55741498 -15.76425241 12.60277377 -2.72265625 1.43359375 C-1 0 -1 0 0 0 Z " fill="#86BAD5" transform="translate(771,563)"/>
<path d="M0 0 C3.52690411 1.56568173 6.24723787 3.71775773 9.25 6.125 C20.88320637 15.06970771 33.96357865 20.11758558 48 24 C48.32064885 33.59571367 45.22067234 41.71726165 39 49 C35.2553878 52.31665652 31.47572314 52.64199011 26.625 52.46875 C20.0055364 51.28670293 15.44659808 47.05764011 11.6875 41.6875 C6.76779733 33.93121201 4.17965392 25.72653021 2.25 16.8125 C1.91935547 15.37487305 1.91935547 15.37487305 1.58203125 13.90820312 C0.53379955 9.19767123 -0.2939564 4.85844604 0 0 Z " fill="#86BAD6" transform="translate(637,563)"/>
<path d="M0 0 C4.38821573 2.49611608 6.7292801 4.37445946 9 9 C11.38385066 20.3895087 5.2948029 34.99767947 -0.421875 44.59765625 C-14.21580328 65.59583915 -33.72886999 79.47939791 -58 86 C-57.67 80.39 -57.34 74.78 -57 69 C-54.81375 68.360625 -52.6275 67.72125 -50.375 67.0625 C-32.60658243 61.36312272 -15.00299965 47.22441452 -6.25 30.6953125 C-4.73848184 27.49060333 -3.31153435 24.29136645 -2 21 C-1.6184375 20.04351562 -1.236875 19.08703125 -0.84375 18.1015625 C0.16423577 14.39628149 0.22081954 10.92829855 0.125 7.125 C0.11597656 6.43664062 0.10695313 5.74828125 0.09765625 5.0390625 C0.07432513 3.35922162 0.03846326 1.67956254 0 0 Z " fill="#86BAD5" transform="translate(884,380)"/>
<path d="M0 0 C5.61491893 2.96637227 9.25771677 5.58565032 11.3125 11.75 C11.92550259 17.61837844 12.20140343 22.83543877 9.6875 28.25 C4.65046309 33.55214412 0.69338527 36.84745696 -6.875 37.125 C-12.67100429 37.06366662 -16.39559575 35.63700762 -20.6875 31.75 C-25.69976112 25.3240242 -26.48845743 19.71380531 -25.6875 11.75 C-23.29140233 6.67027295 -19.23364197 2.98820321 -14.6875 -0.25 C-9.44639104 -1.99703632 -5.13995573 -1.74235788 0 0 Z " fill="#3E677C" transform="translate(657.6875,294.25)"/>
<path d="M0 0 C4.0029769 2.72025502 6.36430592 5.94961919 8.12109375 10.44140625 C8.95274385 15.84020145 8.6982319 20.6081439 7.05859375 25.81640625 C3.69235883 30.37711163 -0.11458315 34.46623881 -5.87890625 35.44140625 C-12.77609731 36.14614437 -17.26513976 35.59559345 -22.87890625 31.44140625 C-28.04480452 25.99627024 -29.47549891 20.66485368 -29.31640625 13.296875 C-28.45022579 7.64350077 -25.49714863 3.43471835 -20.98046875 -0.00390625 C-13.94690194 -3.97940053 -7.08626087 -3.52470861 0 0 Z " fill="#3D667B" transform="translate(767.87890625,295.55859375)"/>
<path d="M0 0 C0.495 0.495 0.495 0.495 1 1 C0.91062197 2.52519276 0.75462854 4.04681929 0.5625 5.5625 C0.46066406 6.38878906 0.35882812 7.21507812 0.25390625 8.06640625 C0.12822266 9.02353516 0.12822266 9.02353516 0 10 C-4.38799141 9.44578754 -8.59559817 8.67005715 -12.89331055 7.59082031 C-41.49646642 0.41765664 -73.04694546 0.09155689 -101.28515625 9.23046875 C-104 10 -104 10 -108 10 C-108.33 7.03 -108.66 4.06 -109 1 C-75.29199041 -12.33879523 -34.05547039 -11.76189333 0 0 Z " fill="#DFF3FA" transform="translate(758,214)"/>
<path d="M0 0 C0.495 3.465 0.495 3.465 1 7 C0.34 7 -0.32 7 -1 7 C-1.23589844 7.55042969 -1.47179687 8.10085938 -1.71484375 8.66796875 C-3.32264344 11.58546546 -5.35604787 13.81599783 -7.5625 16.3125 C-20.78802367 31.81221566 -30.44146014 51.07607805 -30.3125 71.75 C-30.31121094 72.6152832 -30.30992187 73.48056641 -30.30859375 74.37207031 C-30.20154516 81.57376407 -29.1173189 88.09350741 -27 95 C-29.82742161 94.42743237 -30.89221147 94.10125589 -33.0625 92.0625 C-39.85484663 81.32621017 -39.06808566 68.19154543 -36.74609375 56.1171875 C-33.48087465 42.4750679 -18.09848297 0 0 0 Z " fill="#DEF3F8" transform="translate(579,447)"/>
<path d="M0 0 C-0.14363527 1.37523135 -0.29003517 2.75017402 -0.4375 4.125 C-0.51871094 4.89070313 -0.59992187 5.65640625 -0.68359375 6.4453125 C-1 9 -1 9 -1.51367188 11.54882812 C-2.13811859 15.98014275 -2.12363746 20.30472092 -2.09765625 24.7734375 C-2.09553383 26.1590538 -2.09553383 26.1590538 -2.09336853 27.57266235 C-2.08779609 30.50680862 -2.07524869 33.44087701 -2.0625 36.375 C-2.05748144 38.37109264 -2.05291915 40.36718649 -2.04882812 42.36328125 C-2.03783569 47.24221725 -2.0205901 52.12109545 -2 57 C-6.2474284 56.13037565 -9.09066725 54.17452662 -12 51 C-18.3230831 41.12641598 -17.91351941 29.34187734 -17 18 C-15.45079472 11.09680548 -12.29370362 5.38793512 -6.5 1.1875 C-4 0 -4 0 0 0 Z " fill="#62C9A1" transform="translate(571,292)"/>
<path d="M0 0 C5.21905698 0.69054375 8.51372809 1.98342195 12 6 C16.41940034 13.19730912 17.20641586 19.31132493 17.25 27.625 C17.270625 28.58535156 17.29125 29.54570312 17.3125 30.53515625 C17.35414462 38.20817783 16.4887956 45.96441488 11.1875 51.9375 C10.72730469 52.48277344 10.26710938 53.02804687 9.79296875 53.58984375 C7.40289685 55.46961708 4.87974345 56.09072265 2 57 C2.01571045 55.20937134 2.01571045 55.20937134 2.03173828 53.38256836 C2.06840318 48.88162326 2.0910666 44.38069087 2.10986328 39.87963867 C2.11981638 37.94504565 2.13338371 36.01046725 2.15087891 34.07592773 C2.25258437 22.52637458 1.9674476 11.40210192 0 0 Z " fill="#5FCBA2" transform="translate(837,292)"/>
<path d="M0 0 C3.2682346 3.14718888 6.1310659 6.49352499 9 10 C7.75262312 12.55353069 6.43674221 15.06446594 5.08984375 17.56640625 C4.73986328 18.21673828 4.38988281 18.86707031 4.02929688 19.53710938 C3.29892081 20.89202883 2.56713965 22.24619176 1.83398438 23.59960938 C-1.13282815 29.12193878 -2.97780041 33.67550373 -2 40 C-1.22698139 41.85956925 -0.38854881 43.69278209 0.5 45.5 C2.90389837 50.39632557 3.68919777 53.5848747 3 59 C2.34 59.66 1.68 60.32 1 61 C-2.01330688 60.81320447 -3.60580451 60.32388808 -5.94921875 58.3984375 C-13.0278914 50.15854439 -13.75138067 42.65482431 -13 32 C-11.48959225 20.85887352 -6.22623496 9.33935244 0 0 Z " fill="#88BCD5" transform="translate(584,472)"/>
<path d="M0 0 C-0.32613281 0.64582031 -0.65226563 1.29164063 -0.98828125 1.95703125 C-8.39871667 17.93646575 -8.55430258 35.67197367 -9 53 C-12.99904391 51.20154729 -15.70372428 49.72056516 -18.25 46.125 C-18.72953125 45.46757812 -19.2090625 44.81015625 -19.703125 44.1328125 C-24.34241583 36.50313541 -23.95251057 27.67003358 -23 19 C-20.99491043 11.4645936 -16.30023593 6.40118314 -10 2 C-6.45471247 0.10368342 -3.96399066 -0.05916404 0 0 Z " fill="#58B5A0" transform="translate(612,426)"/>
<path d="M0 0 C0.33 0 0.66 0 1 0 C0.45208107 12.38296785 -3.29987444 25.03288651 -12.05859375 34.140625 C-16.31470225 37.98283671 -19.2935599 40.15912197 -25.1875 40.0625 C-26.445625 40.041875 -27.70375 40.02125 -29 40 C-31.35721816 35.43288982 -31.7043108 31.0282442 -31 26 C-26.84456757 17.52291784 -19.05027838 13.34909461 -11.07397461 8.97900391 C-6.58430875 6.47080392 -3.36524997 3.84599997 0 0 Z " fill="#B6DFF1" transform="translate(768,575)"/>
<path d="M0 0 C8.54596246 0.96933371 13.25813895 4.39533118 18.609375 10.98046875 C23.67819182 19.02507971 23.41881825 29.85044131 22 39 C19.87608816 44.67548628 16.07660055 48.70706991 11 52 C9.515 52.495 9.515 52.495 8 53 C7.98598145 51.85337891 7.98598145 51.85337891 7.97167969 50.68359375 C7.65482278 29.51767492 7.65482278 29.51767492 3 9 C2.69320312 8.02417969 2.38640625 7.04835938 2.0703125 6.04296875 C1.41662431 4.01653535 0.71614704 2.00521171 0 0 Z " fill="#57B6A2" transform="translate(797,426)"/>
<path d="M0 0 C0.86625 0.804375 1.7325 1.60875 2.625 2.4375 C6.16899553 5.49067741 9.99051998 8.00717051 13.9375 10.5 C30.07375427 20.73970138 30.07375427 20.73970138 32 27 C32.58715616 31.68238457 32.90845695 35.53249262 30.375 39.625 C27.10893463 41.51587995 25.74925178 41.707406 22 41 C11.92871276 36.20845401 6.63929393 27.20619764 3 17 C1.31074374 11.32322896 -0.21748641 5.95912771 0 0 Z " fill="#B5DFF2" transform="translate(639,574)"/>
<path d="M0 0 C4.38299083 2.19149542 7.20074724 4.40190962 9 9 C9.73650973 13.37442142 10.02973445 17.25228556 7.72265625 21.16796875 C2.9884854 26.78183883 2.9884854 26.78183883 -1.171875 27.23828125 C-6.98708213 27.40568873 -10.49113257 27.06897793 -15 23 C-18.16205748 19.31093294 -18.52383784 15.92109268 -18.3515625 11.21484375 C-17.63443905 6.69696599 -15.18268822 4.01373276 -11.8125 1.125 C-7.79880044 -0.48047982 -4.26304489 -0.67667379 0 0 Z " fill="#64CD9E" transform="translate(818,172)"/>
<path d="M0 0 C4.38299083 2.19149542 7.20074724 4.40190962 9 9 C9.73487974 13.36474029 10.00960443 17.23795452 7.7578125 21.16796875 C4.74410195 24.80391307 2.5910361 26.68782698 -2.26953125 27.2734375 C-9.98236748 27.58147704 -9.98236748 27.58147704 -13.5 24.75 C-17.52133193 20.32653488 -18.46160527 17.13540039 -18.31640625 11.25 C-17.67698796 6.70302551 -15.18835099 4.01858656 -11.8125 1.125 C-7.79880044 -0.48047982 -4.26304489 -0.67667379 0 0 Z " fill="#62CF9E" transform="translate(599,172)"/>
<path d="M0 0 C5.63759952 0.48752826 9.5183704 2.69170675 14.25 5.5625 C15.00289307 6.01431641 15.75578613 6.46613281 16.53149414 6.93164062 C22.41628468 10.52266074 27.87972337 14.36694693 33 19 C33.82757812 19.74636719 34.65515625 20.49273437 35.5078125 21.26171875 C44.40694937 29.7118166 50.91047435 39.47059469 56.5 50.3125 C56.83854004 50.95783691 57.17708008 51.60317383 57.52587891 52.26806641 C59.80071745 56.8707563 60.59101878 60.8820545 61 66 C58.79619973 63.96673883 57.42030624 62.1594269 56.16015625 59.4453125 C51.1022398 48.99691429 45.34687851 41.03577826 37 33 C36.27296875 32.26523438 35.5459375 31.53046875 34.796875 30.7734375 C24.710134 21.11018563 11.76973186 14.37903089 -1 9 C-0.67 6.03 -0.34 3.06 0 0 Z " fill="#DEF3F9" transform="translate(765,218)"/>
<path d="M0 0 C1.4783226 2.95664519 1.06032783 5.74229737 1 9 C-0.01578125 9.4846875 -1.0315625 9.969375 -2.078125 10.46875 C-26.1278949 22.10933148 -44.31030044 37.27577908 -57 61 C-57.66 61 -58.32 61 -59 61 C-57.52925946 48.82962204 -49.56440728 38.22394562 -42 29 C-41.32453125 28.14792969 -40.6490625 27.29585937 -39.953125 26.41796875 C-31.82743539 16.71907232 -13.48290416 0 0 0 Z " fill="#DEF3F9" transform="translate(643,218)"/>
<path d="M0 0 C3.16999741 0.22642839 4.59171986 0.55664734 6.7734375 2.92578125 C7.30195312 3.71339844 7.83046875 4.50101562 8.375 5.3125 C11.46429849 9.45796891 13.89749642 12.59401817 19 14 C26.65745767 14.94230373 34.68798197 14.92584937 41 10 C42.98535039 7.435924 44.68643438 4.86107931 46.296875 2.046875 C48 0 48 0 50.703125 -0.296875 C51.46109375 -0.19890625 52.2190625 -0.1009375 53 0 C54.10281299 3.0721219 54.36518844 5.16036592 53.046875 8.19140625 C48.27238252 15.94339816 41.76006649 20.59506249 33 23 C22.01014918 24.10800372 14.23143757 22.64806566 5.6875 15.6875 C2.18255567 12.42089189 -0.08961197 9.4021985 -2 5 C-1.81475306 2.65353874 -1.64739642 1.64739642 0 0 Z " fill="#40667A" transform="translate(678,340)"/>
<path d="M0 0 C7.26 0 14.52 0 22 0 C26.125 13.375 26.125 13.375 25 19 C15.43 19 5.86 19 -4 19 C-3.06200604 12.43404228 -1.65528178 6.40522081 0 0 Z " fill="#FAFCFD" transform="translate(693,589)"/>
<path d="M0 0 C2.00720923 0.28674418 4.0085944 0.61866701 6 1 C6.02777514 2.33320679 6.04673341 3.66659713 6.0625 5 C6.07410156 5.7425 6.08570313 6.485 6.09765625 7.25 C6 10 6 10 5.49560547 13.68994141 C4.98127018 17.71750352 4.91588398 21.64726473 4.97265625 25.7109375 C4.98528114 27.13411234 4.99764361 28.55728953 5.00976562 29.98046875 C5.0347296 32.19262254 5.0629424 34.40465023 5.09594727 36.61669922 C5.12602255 38.77312043 5.14386286 40.92937457 5.16015625 43.0859375 C5.17699463 44.3651709 5.19383301 45.6444043 5.21118164 46.96240234 C5 50 5 50 3 52 C-0.29714793 51.67028521 -1.6226839 51.3773161 -4 49 C-4.21257092 46.24734831 -4.30396086 43.59810416 -4.30078125 40.84375 C-4.30506638 40.02684692 -4.3093515 39.20994385 -4.31376648 38.36828613 C-4.31951875 36.63322882 -4.32000346 34.89814738 -4.31567383 33.16308594 C-4.31254526 30.53797677 -4.33585021 27.91402959 -4.36132812 25.2890625 C-4.42412671 8.37261853 -4.42412671 8.37261853 -1 1 C-0.67 0.67 -0.34 0.34 0 0 Z " fill="#EBF9FB" transform="translate(626,441)"/>
<path d="M0 0 C0.66 0 1.32 0 2 0 C6.90860384 23.54961128 6.90860384 23.54961128 2.5 30.625 C1.37068909 32.11244886 0.20297369 33.57146875 -1 35 C-1.556875 35.67933594 -2.11375 36.35867188 -2.6875 37.05859375 C-8.56992321 43.56222114 -18.18699004 50.45117894 -27 52 C-30 48.375 -30 48.375 -30 45 C-29.26136719 44.74347656 -28.52273438 44.48695313 -27.76171875 44.22265625 C-17.93983197 40.51604841 -8.99853461 34.90036956 -2.94848633 26.10546875 C-1.02633445 21.83863791 -1.57496979 17.26672158 -1.8125 12.6875 C-1.89007341 10.71255734 -1.95950429 8.73727258 -2.01953125 6.76171875 C-2.06182861 5.89506592 -2.10412598 5.02841309 -2.14770508 4.13549805 C-2 2 -2 2 0 0 Z " fill="#E2F3F9" transform="translate(850,384)"/>
<path d="M0 0 C0.33 0 0.66 0 1 0 C1.03738281 0.74765625 1.07476563 1.4953125 1.11328125 2.265625 C1.17902344 3.25046875 1.24476563 4.2353125 1.3125 5.25 C1.37050781 6.22453125 1.42851563 7.1990625 1.48828125 8.203125 C2.06158308 11.33659147 2.75747433 12.75747433 5 15 C7.02006441 15.89405175 7.02006441 15.89405175 9.1875 16.25 C10.445625 16.4975 11.70375 16.745 13 17 C13 13.04 13 9.08 13 5 C13.33 5 13.66 5 14 5 C14.33 16.22 14.66 27.44 15 39 C9.88590422 37.72147606 6.58558058 35.47590658 3.76171875 31.06640625 C1.0368912 25.82482889 -0.13593094 21.0692955 -0.09765625 15.13671875 C-0.09443359 14.25048828 -0.09121094 13.36425781 -0.08789062 12.45117188 C-0.07951172 11.53916016 -0.07113281 10.62714844 -0.0625 9.6875 C-0.05798828 8.75615234 -0.05347656 7.82480469 -0.04882812 6.86523438 C-0.03709234 4.57675627 -0.02067363 2.28841192 0 0 Z " fill="#54AC9D" transform="translate(554,310)"/>
<path d="M0 0 C0.33 0 0.66 0 1 0 C1 3.63 1 7.26 1 11 C7.65547228 8.87681649 7.65547228 8.87681649 14 6 C14.44750488 15.39760239 12.94049701 22.30579766 6.79296875 29.58984375 C5 31 5 31 -1 33 C-0.67 22.11 -0.34 11.22 0 0 Z " fill="#52AD9B" transform="translate(840,316)"/>
<path d="M0 0 C2.29821908 0.32181607 3.92578135 0.96289068 6 2 C4.56006454 9.72329019 1.94467554 16.7282249 -1 24 C-4.10742423 22.53181332 -6.90471739 20.79975 -9.75 18.875 C-10.54921875 18.33617187 -11.3484375 17.79734375 -12.171875 17.2421875 C-12.77515625 16.83226562 -13.3784375 16.42234375 -14 16 C-12.32357676 11.74685214 -9.2824091 8.87898186 -6.125 5.6875 C-5.59519531 5.12482422 -5.06539062 4.56214844 -4.51953125 3.98242188 C-2.9453125 2.38671875 -2.9453125 2.38671875 0 0 Z " fill="#9ACBE4" transform="translate(798,202)"/>
<path d="M0 0 C2.93230193 1.32120828 4.98664899 2.74638197 7.234375 5.0390625 C8.09482422 5.90917969 8.09482422 5.90917969 8.97265625 6.796875 C9.55917969 7.40015625 10.14570312 8.0034375 10.75 8.625 C11.35199219 9.23601562 11.95398438 9.84703125 12.57421875 10.4765625 C14.05405305 11.97988624 15.52764676 13.48934856 17 15 C14.14094626 17.30298993 11.28068575 19.58889397 8.3125 21.75 C7.73113281 22.17796875 7.14976562 22.6059375 6.55078125 23.046875 C5 24 5 24 3 24 C1.99018911 21.27411167 0.99196692 18.54487736 0 15.8125 C-0.28617188 15.04357422 -0.57234375 14.27464844 -0.8671875 13.48242188 C-3.67024279 5.70728042 -3.67024279 5.70728042 -3 2 C-2.01 1.34 -1.02 0.68 0 0 Z " fill="#9ECEE7" transform="translate(608,202)"/>
<path d="M0 0 C2.64 0.66 5.28 1.32 8 2 C7.01 2.495 7.01 2.495 6 3 C5.61767538 5.32580813 5.29322578 7.66128792 5 10 C2.9952306 18.53992456 0.30234885 26.34746148 -4 34 C-5.98 33.67 -7.96 33.34 -10 33 C-9.608125 31.824375 -9.21625 30.64875 -8.8125 29.4375 C-8.54179688 28.62152344 -8.27109375 27.80554688 -7.9921875 26.96484375 C-7.25649792 24.76646425 -6.51002821 22.57168602 -5.7578125 20.37890625 C-3.45873427 13.64576934 -1.35085854 6.99990336 0 0 Z " fill="#6395AE" transform="translate(759,215)"/>
<path d="M0 0 C0.30292969 1.23234375 0.60585938 2.4646875 0.91796875 3.734375 C3.09795138 12.40956543 5.36355945 20.68990119 9.08203125 28.84765625 C10 31 10 31 10 33 C7.03 33.495 7.03 33.495 4 34 C-0.03847272 25.88995232 -2.67298666 17.73900207 -5 9 C-5.65778607 6.66402352 -6.32821588 4.33200831 -7 2 C-2.25 0 -2.25 0 0 0 Z " fill="#6697B0" transform="translate(649,215)"/>
<path d="M0 0 C0.66 0.66 1.32 1.32 2 2 C1.9921875 4.36328125 1.9921875 4.36328125 1 7 C-1.6171875 9.16796875 -1.6171875 9.16796875 -4.875 11.1875 C-5.94492187 11.86167969 -7.01484375 12.53585938 -8.1171875 13.23046875 C-9.06851563 13.81441406 -10.01984375 14.39835938 -11 15 C-11.99 15.66 -12.98 16.32 -14 17 C-17.51724138 16.48275862 -17.51724138 16.48275862 -19 15 C-19.5 12.8125 -19.5 12.8125 -19 10 C-16.92174691 7.65746038 -14.51362542 5.85348137 -12 4 C-10.989375 3.21625 -9.97875 2.4325 -8.9375 1.625 C-5.61313382 -0.21401108 -3.74070011 -0.51009547 0 0 Z " fill="#ECF9FD" transform="translate(637,236)"/>
<path d="M0 0 C-2.4512657 8.0223241 -2.4512657 8.0223241 -6.0234375 10.27734375 C-7.56633406 10.89081627 -9.11896804 11.48027718 -10.6796875 12.046875 C-15.48999361 14.02282566 -19.12166662 17.24333324 -21.4375 21.875 C-21.623125 22.57625 -21.80875 23.2775 -22 24 C-22.33 24 -22.66 24 -23 24 C-22.74234212 16.91440836 -20.62608442 12.38055313 -16 7 C-10.95079615 2.44618974 -6.95700465 -0.18802715 0 0 Z " fill="#80DDB7" transform="translate(612,426)"/>
<path d="M0 0 C7.45413689 0.84549238 12.0014751 3.41606227 17 9 C19.26120526 11.98180913 21.14882998 14.54890771 20.75 18.4375 C20.5025 18.953125 20.255 19.46875 20 20 C19.319375 19.2575 18.63875 18.515 17.9375 17.75 C14.34839229 14.16089229 10.21696567 11.55424142 5.25 10.3125 C1.87857837 8.34583738 1.51806175 5.53287927 0.48046875 1.8984375 C0.32191406 1.27195312 0.16335938 0.64546875 0 0 Z " fill="#78E4B1" transform="translate(797,426)"/>
<path d="M0 0 C0.24424745 3.23268686 0.11295155 5.93687658 -1 9 C-4.04339955 11.5773439 -7.46148991 13.19787953 -11 15 C-12.69930848 16.29147445 -14.38707631 17.6021328 -16 19 C-15.71960354 12.41068328 -13.17476325 8.05206858 -9 3 C-5.52264057 0.26778902 -4.50799133 0 0 0 Z " fill="#90E4C0" transform="translate(571,292)"/>
<path d="M0 0 C5.22471956 0.37319425 8.58036011 2.09184013 12 6 C16.27422993 12.46910476 16.27422993 12.46910476 15.59765625 16.24609375 C15.40042969 16.82488281 15.20320312 17.40367187 15 18 C14.49210938 17.60167969 13.98421875 17.20335937 13.4609375 16.79296875 C8.82147314 13.22186552 8.82147314 13.22186552 3.5625 10.6875 C1 9 1 9 0.41015625 6.8203125 C0.15002398 4.53257395 0.00964985 2.30148811 0 0 Z " fill="#92E5C0" transform="translate(837,292)"/>
<path d="M0 0 C2 2 2 2 2.3125 5.4375 C2 9 2 9 0.875 10.9375 C-1.88980433 12.50422245 -3.88188517 12.38976435 -7 12 C-8.875 10.875 -8.875 10.875 -10 9 C-10.38976435 5.88188517 -10.50422245 3.88980433 -8.9375 1.125 C-5.93267901 -0.61973477 -3.39189869 -0.30835443 0 0 Z " fill="#396B7B" transform="translate(687,487)"/>
<path d="M0 0 C1.875 1.125 1.875 1.125 3 3 C3.39365568 6.14924548 3.52854531 8.11909116 1.875 10.875 C-0.88090884 12.52854531 -2.85075452 12.39365568 -6 12 C-7.875 10.875 -7.875 10.875 -9 9 C-9.39365568 5.85075452 -9.52854531 3.88090884 -7.875 1.125 C-5.11909116 -0.52854531 -3.14924548 -0.39365568 0 0 Z " fill="#366A77" transform="translate(728,487)"/>
<path d="M0 0 C1.875 1.125 1.875 1.125 3 3 C3.39365568 6.14924548 3.52854531 8.11909116 1.875 10.875 C-0.88090884 12.52854531 -2.85075452 12.39365568 -6 12 C-7.875 10.875 -7.875 10.875 -9 9 C-9.39365568 5.85075452 -9.52854531 3.88090884 -7.875 1.125 C-5.11909116 -0.52854531 -3.14924548 -0.39365568 0 0 Z " fill="#386879" transform="translate(707,487)"/>
<path d="M0 0 C3.0625 0.3125 3.0625 0.3125 4.9375 1.5 C6.46909584 3.96757108 6.49072025 5.45769831 6.0625 8.3125 C4.9375 10.125 4.9375 10.125 3.0625 11.3125 C0.0625 11.75 0.0625 11.75 -2.9375 11.3125 C-4.875 9.625 -4.875 9.625 -5.9375 7.3125 C-5.61764525 2.8345335 -4.76027546 0.50641228 0 0 Z " fill="#EFF7F9" transform="translate(644.9375,300.6875)"/>
<path d="M0 0 C3.0625 0.3125 3.0625 0.3125 4.9375 1.5 C6.46909584 3.96757108 6.49072025 5.45769831 6.0625 8.3125 C4.9375 10.125 4.9375 10.125 3.0625 11.3125 C0 11.625 0 11.625 -2.9375 11.3125 C-4.9375 9.3125 -4.9375 9.3125 -5.1875 5.8125 C-4.87458101 1.43163414 -4.40975115 0.46912246 0 0 Z " fill="#F1F9FA" transform="translate(751.9375,300.6875)"/>
<path d="M0 0 C3.57849992 0.29820833 4.76226484 0.74245358 7.25 3.4375 C10.49966974 8.19594498 10.91768523 12.30695273 10 18 C7.74535879 21.98129682 5.35831515 24.54722828 1 26 C-3.06761945 26.49007463 -7.18317658 26.92506284 -10.91796875 25.0234375 C-13.70096292 22.78329898 -15.98816117 20.44025204 -17 17 C-17.0777346 14.66796188 -17.08967728 12.33160941 -17 10 C-15.9799754 12.02638816 -14.97332505 14.05616327 -14 16.10546875 C-13.67 16.79253906 -13.34 17.47960937 -13 18.1875 C-12.67 18.88230469 -12.34 19.57710937 -12 20.29296875 C-11.10654218 22.17410475 -11.10654218 22.17410475 -9 23 C-7.0246012 23.14779962 -5.04321076 23.22118966 -3.0625 23.25 C-2.00160156 23.27578125 -0.94070313 23.3015625 0.15234375 23.328125 C2.98912243 23.24285237 2.98912243 23.24285237 4.80078125 21.65625 C7.47054445 17.96902005 8.06849041 14.80818688 7.6875 10.3125 C7.07120014 7.01886499 7.07120014 7.01886499 6 4 C5.34 4 4.68 4 4 4 C4 3.34 4 2.68 4 2 C2.68 1.67 1.36 1.34 0 1 C0 0.67 0 0.34 0 0 Z " fill="#6AC3AA" transform="translate(598,173)"/>
<path d="M0 0 C0.66 0.66 1.32 1.32 2 2 C1.7862539 4.77869928 1.2989626 6.55155611 -0.25 8.875 C-2 10 -2 10 -4.5625 9.8125 C-7 9 -7 9 -9 7 C-9.375 4.5625 -9.375 4.5625 -9 2 C-6.07557433 -1.24936186 -4.04996841 -1.38551551 0 0 Z " fill="#A6F8C1" transform="translate(815,177)"/>
<path d="M0 0 C2 2 2 2 2.25 5 C2 8 2 8 0 10 C-3 10.25 -3 10.25 -6 10 C-8 8 -8 8 -8.3125 5.5625 C-8 3 -8 3 -6.8125 1.1875 C-4.3864306 -0.40199375 -2.84602594 -0.36487512 0 0 Z " fill="#A6F9BF" transform="translate(595,176)"/>
<path d="M0 0 C3.75319208 1.84247611 5.5026965 3.005393 7.375 6.75 C7.58125 7.4925 7.7875 8.235 8 9 C7.56429687 8.57847656 7.12859375 8.15695313 6.6796875 7.72265625 C2.92027299 4.26432039 0.33068914 2.12115203 -5 2 C-5.99 2.33 -6.98 2.66 -8 3 C-8 3.66 -8 4.32 -8 5 C-8.928125 5.433125 -9.85625 5.86625 -10.8125 6.3125 C-13.47184073 7.72038627 -15.08105905 8.76123556 -17 11 C-16.93033711 8.00449559 -16.69928914 5.80783552 -14.69140625 3.48828125 C-10.10250703 -0.21039272 -5.77673804 -1.13434129 0 0 Z " fill="#6FCAAA" transform="translate(818,172)"/>
<path d="M0 0 C2.5625 0.1875 2.5625 0.1875 4.5625 2.1875 C4.23278521 5.48464793 3.9398161 6.8101839 1.5625 9.1875 C-1.37203261 8.82068342 -2.30187246 8.32312754 -4.4375 6.1875 C-3.71780303 0.28598485 -3.71780303 0.28598485 0 0 Z " fill="#79AEB1" transform="translate(769.4375,343.8125)"/>
<path d="M0 0 C0.66 0.66 1.32 1.32 2 2 C1.505 2.99 1.01 3.98 0.5 5 C-1.75318587 10.27160468 -1.61674862 15.0046368 0.0625 20.4375 C-0.0173182 24.98713727 -1.28441476 25.78441476 -4.4375 28.9375 C-5.94021813 30.31174147 -7.45580546 31.67253452 -9 33 C-9 29.28032075 -7.6843285 28.29476989 -5.19140625 25.6953125 C-2.42527506 21.75924386 -2.9620122 17.17505482 -3.125 12.5625 C-3.18323898 7.42582188 -2.90281764 4.23327572 0 0 Z " fill="#D2F4EB" transform="translate(794,172)"/>
<path d="M0 0 C2.5625 0.1875 2.5625 0.1875 4.5625 2.1875 C4.00694444 6.74305556 4.00694444 6.74305556 2.5625 8.1875 C0.125 8.375 0.125 8.375 -2.4375 8.1875 C-3.0975 7.5275 -3.7575 6.8675 -4.4375 6.1875 C-3.71780303 0.28598485 -3.71780303 0.28598485 0 0 Z " fill="#E4F9FC" transform="translate(629.4375,499.8125)"/>
<path d="M0 0 C3.125 0.375 3.125 0.375 6 1 C6.125 3.875 6.125 3.875 6 7 C5.34 7.66 4.68 8.32 4 9 C-0.55555556 8.44444444 -0.55555556 8.44444444 -2 7 C-2.1875 4.5625 -2.1875 4.5625 -2 2 C-1.34 1.34 -0.68 0.68 0 0 Z " fill="#69A7AA" transform="translate(781,344)"/>
<path d="M0 0 C2.625 0.375 2.625 0.375 5 1 C5.625 3.3125 5.625 3.3125 6 6 C5.01 7.485 5.01 7.485 4 9 C-0.875 8.125 -0.875 8.125 -2 7 C-2.1875 4.5625 -2.1875 4.5625 -2 2 C-1.34 1.34 -0.68 0.68 0 0 Z " fill="#77ACB1" transform="translate(754,344)"/>
<path d="M0 0 C1.875 0.6875 1.875 0.6875 2.875 1.6875 C3.0625 4.125 3.0625 4.125 2.875 6.6875 C2.215 7.3475 1.555 8.0075 0.875 8.6875 C-3.68055556 8.13194444 -3.68055556 8.13194444 -5.125 6.6875 C-5.375 4.25 -5.375 4.25 -5.125 1.6875 C-2.125 -0.3125 -2.125 -0.3125 0 0 Z " fill="#E9FAFD" transform="translate(663.125,224.3125)"/>
<path d="M0 0 C0.33 0 0.66 0 1 0 C1.39795292 8.35701127 0.4943649 15.20989962 -4.8125 21.9375 C-7.53461743 24.88475497 -10.02501758 26.14821805 -14 27 C-13.67 25.02 -13.34 23.04 -13 21 C-12.34 21.99 -11.68 22.98 -11 24 C-9.824375 22.7625 -9.824375 22.7625 -8.625 21.5 C-6 19 -6 19 -4 19 C-2.14897283 12.66692592 -0.62031591 6.57534861 0 0 Z " fill="#5EACA5" transform="translate(853,322)"/>
<path d="M0 0 C7.66121471 1.07735832 11.60772873 3.50487887 17 9 C16.67 9.66 16.34 10.32 16 11 C15.55269531 10.57847656 15.10539063 10.15695312 14.64453125 9.72265625 C10.01600234 5.4622021 10.01600234 5.4622021 4 4 C4.33 5.65 4.66 7.3 5 9 C4.34 9 3.68 9 3 9 C2.01 6.03 1.02 3.06 0 0 Z " fill="#87DDC0" transform="translate(797,426)"/>
<path d="M0 0 C0 3 0 3 -1.75 5.4375 C-5.23517075 8.78165228 -9.72197138 9.77638812 -14.2578125 11.10546875 C-17.171302 11.91970004 -17.171302 11.91970004 -20 14 C-20 12.35 -20 10.7 -20 9 C-18.91332031 8.85304687 -18.91332031 8.85304687 -17.8046875 8.703125 C-10.16242042 7.52112102 -5.28176745 5.8686305 0 0 Z " fill="#D5F6ED" transform="translate(831,198)"/>
<path d="M0 0 C2.64 0.66 5.28 1.32 8 2 C7.01 2.495 7.01 2.495 6 3 C5.65657551 4.33076989 5.32380126 5.66431979 5 7 C4.34 7.66 3.68 8.32 3 9 C0.875 8.625 0.875 8.625 -1 8 C-0.67 5.36 -0.34 2.72 0 0 Z " fill="#729CB0" transform="translate(759,215)"/>
<path d="M0 0 C1.0828125 0.9590625 1.0828125 0.9590625 2.1875 1.9375 C4.98191184 3.98673535 6.61663274 4.61332946 10 5 C10 5.66 10 6.32 10 7 C13.96 7 17.92 7 22 7 C19.56092256 9.43907744 18.74131058 9.34891288 15.375 9.4375 C9.94451516 9.33518652 5.9840821 7.7106647 2 4 C0.78125 1.828125 0.78125 1.828125 0 0 Z " fill="#436372" transform="translate(540,542)"/>
<path d="M0 0 C0.99 0.33 1.98 0.66 3 1 C0.88094537 3.17277714 -1.24472878 5.33826908 -3.375 7.5 C-3.97828125 8.12003906 -4.5815625 8.74007813 -5.203125 9.37890625 C-5.78320312 9.96542969 -6.36328125 10.55195313 -6.9609375 11.15625 C-7.49509277 11.70087891 -8.02924805 12.24550781 -8.57958984 12.80664062 C-10 14 -10 14 -12 14 C-10.41332422 10.09714233 -7.86649519 7.66479018 -4.875 4.75 C-3.96492187 3.85796875 -3.05484375 2.9659375 -2.1171875 2.046875 C-1.41851563 1.37140625 -0.71984375 0.6959375 0 0 Z " fill="#385B6C" transform="translate(569,444)"/>
<path d="M0 0 C0.33 1.32 0.66 2.64 1 4 C0.34 4 -0.32 4 -1 4 C-1.21398437 4.70511719 -1.42796875 5.41023438 -1.6484375 6.13671875 C-3.34189096 9.72429502 -5.7921711 12.11987456 -8.625 14.8125 C-9.140625 15.31458984 -9.65625 15.81667969 -10.1875 16.33398438 C-11.45159154 17.56296227 -12.72488806 18.78246001 -14 20 C-14.66 19.67 -15.32 19.34 -16 19 C-15.43152344 18.46632813 -14.86304688 17.93265625 -14.27734375 17.3828125 C-8.72359612 12.02377054 -4.20040868 6.46943974 0 0 Z " fill="#DFEDF2" transform="translate(889,429)"/>
<path d="M0 0 C0.66 0.66 1.32 1.32 2 2 C1.67 2.66 1.34 3.32 1 4 C2.98 3.67 4.96 3.34 7 3 C5.30752159 4.12831894 3.60561322 5.24359183 1.875 6.3125 C-0.47192346 8.42473111 -0.66706683 9.92036816 -1 13 C-1.33 13 -1.66 13 -2 13 C-2 11.02 -2 9.04 -2 7 C-2.99 7 -3.98 7 -5 7 C-3.70700306 4.11562221 -2.34058637 2.12780579 0 0 Z " fill="#385A6D" transform="translate(640,296)"/>
<path d="M0 0 C0.66 0 1.32 0 2 0 C1.84144531 0.56976563 1.68289063 1.13953125 1.51953125 1.7265625 C0.28544612 7.12684479 0.1890883 11.5612857 2.9375 16.4375 C3.618125 17.283125 4.29875 18.12875 5 19 C5.33 19.66 5.66 20.32 6 21 C3.10237347 19.70106397 1.02054672 18.46707638 -1 16 C-2.43294755 10.41246628 -2.37564257 5.31025986 0 0 Z " fill="#2B686E" transform="translate(800,177)"/>
<path d="M0 0 C1.9375 1.25 1.9375 1.25 3 3 C2.6875 5.1875 2.6875 5.1875 2 7 C2 6.01 2 5.02 2 4 C0.02 3.34 -1.96 2.68 -4 2 C-6.0245738 3.93254772 -7.42105792 5.63158688 -9 8 C-9.22223194 5.25913944 -9.34781139 3.56036279 -7.875 1.1875 C-5.12844028 -0.55198782 -3.18153026 -0.39769128 0 0 Z " fill="#2F5F68" transform="translate(707,487)"/>
<path d="M0 0 C4.4531809 2.22659045 6.64102499 4.61904641 9 9 C9.75 12.875 9.75 12.875 10 16 C7 14 7 14 6.26953125 11.8359375 C6.04330078 10.61777344 6.04330078 10.61777344 5.8125 9.375 C5.57466797 8.14910156 5.57466797 8.14910156 5.33203125 6.8984375 C5.22246094 6.27195312 5.11289062 5.64546875 5 5 C4.34 5 3.68 5 3 5 C1.375 3.625 1.375 3.625 0 2 C0 1.34 0 0.68 0 0 Z " fill="#9CE1CB" transform="translate(843,294)"/>
<path d="M0 0 C0.99 0.33 1.98 0.66 3 1 C2.57847656 1.40089844 2.15695312 1.80179687 1.72265625 2.21484375 C-2.80173678 6.90956687 -3.97061497 10.52060152 -4 17 C-4.33 17 -4.66 17 -5 17 C-5.76681614 7.42331839 -5.76681614 7.42331839 -3.88671875 3.93359375 C-2.5 2.3125 -2.5 2.3125 0 0 Z " fill="#385969" transform="translate(846,377)"/>
<path d="M0 0 C0.99 0.33 1.98 0.66 3 1 C1.37829621 2.00533667 -0.24747237 3.00411907 -1.875 4 C-3.23238281 4.8353125 -3.23238281 4.8353125 -4.6171875 5.6875 C-7 7 -7 7 -9 7 C-8.67 5.68 -8.34 4.36 -8 3 C-6.865625 2.690625 -5.73125 2.38125 -4.5625 2.0625 C-1.21224901 1.37075469 -1.21224901 1.37075469 0 0 Z " fill="#B8E9E4" transform="translate(683,527)"/>
<path d="M0 0 C1 2 1 2 0.25 4.75 C-0.98251685 7.95454382 -2.40772559 10.9602034 -4 14 C-4.33 14 -4.66 14 -5 14 C-4.58669586 8.00708997 -3.68096635 4.74963401 0 0 Z " fill="#8BDCC3" transform="translate(594,436)"/>
<path d="M0 0 C0.66 0.33 1.32 0.66 2 1 C2.08107583 2.93681161 2.13922475 4.8745934 2.1875 6.8125 C2.23970703 8.43091797 2.23970703 8.43091797 2.29296875 10.08203125 C2 13 2 13 -1 16 C-0.67 10.72 -0.34 5.44 0 0 Z " fill="#D7FAED" transform="translate(835,180)"/>
<path d="M0 0 C0 0.99 0 1.98 0 3 C-3.12651057 4.85274701 -5.37173105 5.45353362 -9 5 C-10.32 4.01 -11.64 3.02 -13 2 C-8.71 1.34 -4.42 0.68 0 0 Z " fill="#BACAD4" transform="translate(675,620)"/>
<path d="M0 0 C0 4.07624109 -1.64202171 5.45313878 -4.265625 8.4140625 C-6.61159381 10.5592502 -8.92183219 11.34039261 -12 12 C-8 8 -4 4 0 0 Z " fill="#BEE5F7" transform="translate(802,371)"/>
<path d="M0 0 C1 3 1 3 0.22265625 4.82421875 C-0.8515625 6.54947917 -1.92578125 8.27473958 -3 10 C-3.66 10 -4.32 10 -5 10 C-4.56802365 5.2482602 -3.67230705 3.07999946 0 0 Z " fill="#E4F9FC" transform="translate(589,269)"/>
<path d="M0 0 C0.33 0.66 0.66 1.32 1 2 C3.97 2 6.94 2 10 2 C10 2.33 10 2.66 10 3 C9.19175781 3.04898438 8.38351562 3.09796875 7.55078125 3.1484375 C6.48214844 3.22320312 5.41351562 3.29796875 4.3125 3.375 C2.72888672 3.47941406 2.72888672 3.47941406 1.11328125 3.5859375 C-1.90677269 3.98760089 -4.24078054 4.74069019 -7 6 C-7 5.01 -7 4.02 -7 3 C-4.69 2.01 -2.38 1.02 0 0 Z " fill="#B6DAD6" transform="translate(589,162)"/>
<path d="M0 0 C2 3 2 3 2 5 C2.66 5 3.32 5 4 5 C5.7143618 6.95927063 7.38405168 8.95880212 9 11 C8.67 11.66 8.34 12.32 8 13 C6.46452525 11.59921602 4.94694852 10.17879097 3.4375 8.75 C2.59058594 7.96109375 1.74367188 7.1721875 0.87109375 6.359375 C-1 4 -1 4 -0.77734375 1.703125 C-0.52082031 1.14109375 -0.26429688 0.5790625 0 0 Z " fill="#CCEEEC" transform="translate(615,192)"/>
<path d="M0 0 C0 0.33 0 0.66 0 1 C-2.64 1.66 -5.28 2.32 -8 3 C-8.33 4.32 -8.66 5.64 -9 7 C-10.32 6.67 -11.64 6.34 -13 6 C-12 3 -12 3 -9.875 1.3125 C-6.39918304 -0.274286 -3.77907627 -0.2222986 0 0 Z " fill="#6BC7A8" transform="translate(597,172)"/>
<path d="M0 0 C0.33 0.66 0.66 1.32 1 2 C1.66 2 2.32 2 3 2 C3 5.63 3 9.26 3 13 C-0.375 8.5 -0.375 8.5 -0.1875 4.25 C-0.16042969 3.45078125 -0.13335938 2.6515625 -0.10546875 1.828125 C-0.07066406 1.22484375 -0.03585937 0.6215625 0 0 Z " fill="#65BFA4" transform="translate(800,181)"/>
<path d="M0 0 C0.66 0.33 1.32 0.66 2 1 C-1.46741134 3.95749791 -4.86873527 6.07848152 -9 8 C-7.83917375 4.51752126 -7.09067524 4.11180756 -4.0625 2.25 C-3.35222656 1.80140625 -2.64195312 1.3528125 -1.91015625 0.890625 C-1.27980469 0.59671875 -0.64945313 0.3028125 0 0 Z " fill="#C1E0EC" transform="translate(635,244)"/>
<path d="M0 0 C0 3 0 3 -1.75 5.04296875 C-2.4925 5.75066406 -3.235 6.45835937 -4 7.1875 C-4.7425 7.90292969 -5.485 8.61835938 -6.25 9.35546875 C-6.8275 9.89816406 -7.405 10.44085938 -8 11 C-8 7.45459812 -7.40614728 6.93992636 -5.125 4.375 C-4.59132813 3.76398438 -4.05765625 3.15296875 -3.5078125 2.5234375 C-2 1 -2 1 0 0 Z " fill="#D9FAF3" transform="translate(793,194)"/>
<path d="M0 0 C0.99 0.33 1.98 0.66 3 1 C3.33333333 2.33333333 3.66666667 3.66666667 4 5 C4.99 5.33 5.98 5.66 7 6 C8.1875 8.5625 8.1875 8.5625 9 11 C4.60708214 7.68090651 2.1772135 5.20112114 0 0 Z " fill="#486775" transform="translate(550,342)"/>
<path d="M0 0 C0.33 0.66 0.66 1.32 1 2 C1.66 2.33 2.32 2.66 3 3 C1.68 5.64 0.36 8.28 -1 11 C-1.33 11 -1.66 11 -2 11 C-1.125 3.375 -1.125 3.375 0 0 Z " fill="#CFEBF2" transform="translate(583,277)"/>
<path d="M0 0 C0.66 0.33 1.32 0.66 2 1 C2.36923077 5.55384615 2.36923077 5.55384615 0.5 7.8125 C0.005 8.204375 -0.49 8.59625 -1 9 C-1.99 8.67 -2.98 8.34 -4 8 C-3.525625 7.608125 -3.05125 7.21625 -2.5625 6.8125 C-0.64820367 4.59191626 -0.38733012 2.86624291 0 0 Z " fill="#E5F4F8" transform="translate(756,303)"/>
<path d="M0 0 C2.52259061 1.97420135 2.9929808 2.96745642 3.6875 6.1875 C3.790625 7.115625 3.89375 8.04375 4 9 C1.4375 6.75 1.4375 6.75 -1 4 C-0.8125 1.6875 -0.8125 1.6875 0 0 Z " fill="#89E3C4" transform="translate(814,437)"/>
<path d="M0 0 C0.66 0 1.32 0 2 0 C0.44499019 3.81684226 -2.03595495 6.19195732 -5 9 C-5.66 8.67 -6.32 8.34 -7 8 C-5.88200014 6.66079162 -4.75538103 5.32877444 -3.625 4 C-2.68527344 2.88625 -2.68527344 2.88625 -1.7265625 1.75 C-1.15679688 1.1725 -0.58703125 0.595 0 0 Z " fill="#E7F2F5" transform="translate(822,474)"/>
<path d="M0 0 C0.99 0.495 0.99 0.495 2 1 C2.33 1.99 2.66 2.98 3 4 C5.00016466 5.20882096 5.00016466 5.20882096 7 6 C5.1875 6.625 5.1875 6.625 3 7 C2.01 6.34 1.02 5.68 0 5 C-0.1875 2.375 -0.1875 2.375 0 0 Z " fill="#81ADAF" transform="translate(779,346)"/>
<path d="M0 0 C2.625 -0.1875 2.625 -0.1875 5 0 C2.03716687 2.38672669 -0.94270509 4.7353371 -4 7 C-2.79618552 4.50638429 -1.54571278 2.31856917 0 0 Z " fill="#E4F2F4" transform="translate(599,487)"/>
<path d="M0 0 C0.66 0 1.32 0 2 0 C1.625 2.9375 1.625 2.9375 1 6 C0.01 6.495 0.01 6.495 -1 7 C-1.625 4.625 -1.625 4.625 -2 2 C-1.34 1.34 -0.68 0.68 0 0 Z " fill="#D4EBF4" transform="translate(850,384)"/>
<path d="M0 0 C1.32 0 2.64 0 4 0 C4 0.66 4 1.32 4 2 C3.01 2.33 2.02 2.66 1 3 C0.67 4.65 0.34 6.3 0 8 C-0.66 7.01 -1.32 6.02 -2 5 C-1.125 2.3125 -1.125 2.3125 0 0 Z " fill="#60C2A2" transform="translate(583,178)"/>
<path d="M0 0 C0.66 0.66 1.32 1.32 2 2 C1.625 5.625 1.625 5.625 1 9 C0.34 9 -0.32 9 -1 9 C-0.67 6.03 -0.34 3.06 0 0 Z " fill="#C8D8DF" transform="translate(605,296)"/>
<path d="M0 0 C0.99 0 1.98 0 3 0 C1.63016497 3.16115776 1.0109362 3.9927092 -2 6 C-2 3 -2 3 0 0 Z " fill="#C9E9E5" transform="translate(579,167)"/>
<path d="M0 0 C0.99 0.33 1.98 0.66 3 1 C-0.465 3.97 -0.465 3.97 -4 7 C-4 6.01 -4 5.02 -4 4 C-3.34 4 -2.68 4 -2 4 C-1.34 2.68 -0.68 1.36 0 0 Z " fill="#EBFDF4" transform="translate(569,156)"/>
</svg>
