<?xml version="1.0" encoding="UTF-8"?>
<svg version="1.1" xmlns="http://www.w3.org/2000/svg" width="250" height="167">
<path d="M0 0 C82.5 0 165 0 250 0 C250 55.11 250 110.22 250 167 C167.5 167 85 167 0 167 C0 111.89 0 56.78 0 0 Z " fill="#9A1221" transform="translate(0,0)"/>
<path d="M0 0 C82.5 0 165 0 250 0 C250 18.48 250 36.96 250 56 C167.5 56 85 56 0 56 C0 37.52 0 19.04 0 0 Z " fill="#040404" transform="translate(0,111)"/>
<path d="M0 0 C38.94 0 77.88 0 118 0 C118.495 1.98 118.495 1.98 119 4 C119.99 4 120.98 4 122 4 C121.67 6.31 121.34 8.62 121 11 C116.48281619 12.36884358 113.41225737 11.47075246 109 10 C106.16992998 12.83007002 106.64754074 15.61952852 106.5859375 19.4140625 C106.56657135 20.14370209 106.5472052 20.87334167 106.5272522 21.62509155 C106.46741578 23.95827502 106.42105577 26.29150773 106.375 28.625 C106.33682386 30.20575082 106.29777235 31.78648076 106.2578125 33.3671875 C106.16171122 37.2446223 106.07769588 41.12215449 106 45 C106.78375 44.34 107.5675 43.68 108.375 43 C111 41 111 41 113 41 C113.33 40.01 113.66 39.02 114 38 C115.65 38 117.3 38 119 38 C118.34 37.01 117.68 36.02 117 35 C120 34 120 34 123 34 C122.34 37.63 121.68 41.26 121 45 C124.465 44.505 124.465 44.505 128 44 C127.67 40.7 127.34 37.4 127 34 C129 34 131 34 133 34 C133.433125 34.9590625 133.433125 34.9590625 133.875 35.9375 C134.82823451 38.15206079 134.82823451 38.15206079 137 39 C137.33 34.71 137.66 30.42 138 26 C138.33 26 138.66 26 139 26 C139.05607422 27.69769531 139.05607422 27.69769531 139.11328125 29.4296875 C139.17893082 30.91149205 139.24537851 32.39326139 139.3125 33.875 C139.33505859 34.62136719 139.35761719 35.36773437 139.38085938 36.13671875 C139.47811945 38.099604 139.73042294 40.05328322 140 42 C140.99 42.66 141.98 43.32 143 44 C143 33.44 143 22.88 143 12 C139.42488733 9.73269361 139.42488733 9.73269361 136.9296875 10.3125 C135.91261719 10.6528125 135.91261719 10.6528125 134.875 11 C132.8046875 11.6875 132.8046875 11.6875 131 12 C129 10 129 10 128.8046875 7.8359375 C128.82789063 7.02382813 128.85109375 6.21171875 128.875 5.375 C128.89304688 4.55773438 128.91109375 3.74046875 128.9296875 2.8984375 C128.95289063 2.27195313 128.97609375 1.64546875 129 1 C132.39628981 0.23526328 135.52641647 -0.12402338 139.00508118 -0.12025452 C140.47945396 -0.12231651 140.47945396 -0.12231651 141.98361206 -0.12442017 C143.05032135 -0.12082489 144.11703064 -0.11722961 145.21606445 -0.11352539 C146.34820877 -0.11367142 147.48035309 -0.11381744 148.64680481 -0.1139679 C152.38564984 -0.11327172 156.12444493 -0.10549306 159.86328125 -0.09765625 C162.45688347 -0.09579102 165.05048605 -0.09436761 167.64408875 -0.09336853 C173.77089402 -0.08994164 179.89767871 -0.08206162 186.02447623 -0.07201904 C193.68623592 -0.05973376 201.34799854 -0.05426872 209.00976562 -0.04882812 C222.67319102 -0.03909571 236.33657737 -0.01906229 250 0 C250 18.15 250 36.3 250 55 C167.5 55 85 55 0 55 C0 36.85 0 18.7 0 0 Z " fill="#C0C0C0" transform="translate(0,56)"/>
<path d="M0 0 C5.28 0 10.56 0 16 0 C16 0.33 16 0.66 16 1 C14.35 1 12.7 1 11 1 C11.11362262 2.4800841 11.24122908 3.95910074 11.375 5.4375 C11.44460937 6.26121094 11.51421875 7.08492187 11.5859375 7.93359375 C11.72257812 8.61550781 11.85921875 9.29742187 12 10 C15.0924887 11.54624435 17.59695731 10.12148534 20.80859375 9.1796875 C23 9 23 9 24.61865234 10.01928711 C26.70090376 13.00502513 26.36980409 16.0066028 26.29296875 19.51171875 C26.28872391 20.23994339 26.28447906 20.96816803 26.28010559 21.71846008 C26.26332733 24.04185127 26.22567855 26.3643715 26.1875 28.6875 C26.17245197 30.26365934 26.15876377 31.83983229 26.14648438 33.41601562 C26.11342685 37.27767877 26.06165194 41.13869178 26 45 C22.96117666 43.22445183 20.3711894 41.62078829 18 39 C17.01 39.495 17.01 39.495 16 40 C15.67 38.02 15.34 36.04 15 34 C14.01 34 13.02 34 12 34 C11.67 34.66 11.34 35.32 11 36 C10.505 35.505 10.505 35.505 10 35 C10 37.97 10 40.94 10 44 C6.535 44.495 6.535 44.495 3 45 C3.33 41.7 3.66 38.4 4 35 C2.02 35.495 2.02 35.495 0 36 C0.99 36.66 1.98 37.32 3 38 C1.515 38.495 1.515 38.495 0 39 C-0.66 38.67 -1.32 38.34 -2 38 C-2.33 38.99 -2.66 39.98 -3 41 C-3.33 40.34 -3.66 39.68 -4 39 C-5.1446875 40.2065625 -5.1446875 40.2065625 -6.3125 41.4375 C-9 44 -9 44 -12 45 C-12.07416067 40.35526018 -12.12860615 35.71086501 -12.16479492 31.06567383 C-12.17988094 29.48553464 -12.2003525 27.90543731 -12.22631836 26.32543945 C-12.26271126 24.05409415 -12.27972762 21.78330241 -12.29296875 19.51171875 C-12.30845261 18.80536789 -12.32393646 18.09901703 -12.33988953 17.3712616 C-12.34158031 12.44308222 -12.34158031 12.44308222 -10.48168945 10.03051758 C-9.99273193 9.69044678 -9.50377441 9.35037598 -9 9 C-7.9275 9.33 -6.855 9.66 -5.75 10 C-2.00268399 11.1717751 -2.00268399 11.1717751 2 11 C2.66 8.69 3.32 6.38 4 4 C3.01 4 2.02 4 1 4 C0.67 2.68 0.34 1.36 0 0 Z " fill="#A1956E" transform="translate(118,56)"/>
<path d="M0 0 C5.28 0 10.56 0 16 0 C16 0.33 16 0.66 16 1 C14.35 1 12.7 1 11 1 C11.11362262 2.4800841 11.24122908 3.95910074 11.375 5.4375 C11.44460937 6.26121094 11.51421875 7.08492187 11.5859375 7.93359375 C11.72257813 8.61550781 11.85921875 9.29742187 12 10 C15.0924887 11.54624435 17.59695731 10.12148534 20.80859375 9.1796875 C23 9 23 9 24.61865234 10.01928711 C26.70090376 13.00502513 26.36980409 16.0066028 26.29296875 19.51171875 C26.28872391 20.23994339 26.28447906 20.96816803 26.28010559 21.71846008 C26.26332733 24.04185127 26.22567855 26.3643715 26.1875 28.6875 C26.17245197 30.26365934 26.15876377 31.83983229 26.14648438 33.41601562 C26.11342685 37.27767877 26.06165194 41.13869178 26 45 C22.96117666 43.22445183 20.3711894 41.62078829 18 39 C17.01 39.495 17.01 39.495 16 40 C15.505 38.515 15.505 38.515 15 37 C15.66 37 16.32 37 17 37 C17 30.73 17 24.46 17 18 C14.36 18 11.72 18 9 18 C9 22.62 9 27.24 9 32 C7.02 32.495 7.02 32.495 5 33 C4 32 4 32 3.8671875 28.9453125 C3.86976562 27.68460938 3.87234375 26.42390625 3.875 25.125 C3.87113281 23.24167969 3.87113281 23.24167969 3.8671875 21.3203125 C4 18 4 18 5 15 C3.68 14.34 2.36 13.68 1 13 C2.98 12.67 4.96 12.34 7 12 C7.33 10.68 7.66 9.36 8 8 C7.01 7.67 6.02 7.34 5 7 C6 4 6 4 8 2 C5.03 1.505 5.03 1.505 2 1 C1.67 1.99 1.34 2.98 1 4 C0.67 2.68 0.34 1.36 0 0 Z " fill="#A39157" transform="translate(118,56)"/>
<path d="M0 0 C2.875 -0.125 2.875 -0.125 6 0 C6.66 0.66 7.32 1.32 8 2 C7.360625 2.28875 6.72125 2.5775 6.0625 2.875 C3.84793921 3.82823451 3.84793921 3.82823451 3 6 C4.32 6.33 5.64 6.66 7 7 C6.34 8.65 5.68 10.3 5 12 C-3.23255814 13.37209302 -3.23255814 13.37209302 -7 11 C-7.99 11 -8.98 11 -10 11 C-9.34 12.32 -8.68 13.64 -8 15 C-7.34 15 -6.68 15 -6 15 C-5.85439805 18.72875388 -5.76582957 22.45677434 -5.6875 26.1875 C-5.64560547 27.24259766 -5.60371094 28.29769531 -5.56054688 29.38476562 C-5.43675813 37.23297213 -5.43675813 37.23297213 -8.33203125 41.17578125 C-11 43 -11 43 -14 44 C-14.07416067 39.35526018 -14.12860615 34.71086501 -14.16479492 30.06567383 C-14.17988094 28.48553464 -14.2003525 26.90543731 -14.22631836 25.32543945 C-14.26271126 23.05409415 -14.27972762 20.78330241 -14.29296875 18.51171875 C-14.30845261 17.80536789 -14.32393646 17.09901703 -14.33988953 16.3712616 C-14.34158031 11.44308222 -14.34158031 11.44308222 -12.48168945 9.03051758 C-11.99273193 8.69044678 -11.50377441 8.35037598 -11 8 C-9.9275 8.33 -8.855 8.66 -7.75 9 C-4.00268399 10.1717751 -4.00268399 10.1717751 0 10 C0.66 7.69 1.32 5.38 2 3 C1.34 3 0.68 3 0 3 C0 2.01 0 1.02 0 0 Z " fill="#9B906B" transform="translate(120,57)"/>
<path d="M0 0 C1.31625194 2.63250388 0.74813658 3.80179056 0.0625 6.625 C-0.13214844 7.44226563 -0.32679687 8.25953125 -0.52734375 9.1015625 C-0.68332031 9.72804688 -0.83929688 10.35453125 -1 11 C1.97 11.495 1.97 11.495 5 12 C4.67 12.66 4.34 13.32 4 14 C2.35 14 0.7 14 -1 14 C-1 14.66 -1 15.32 -1 16 C-0.15695313 15.9278125 0.68609375 15.855625 1.5546875 15.78125 C2.65039062 15.6884375 3.74609375 15.595625 4.875 15.5 C5.96554688 15.4071875 7.05609375 15.314375 8.1796875 15.21875 C9.78329564 15.09437042 11.39157551 15 13 15 C13.66 14.34 14.32 13.68 15 13 C15.66 14.32 16.32 15.64 17 17 C17.66 16.67 18.32 16.34 19 16 C18.505 17.485 18.505 17.485 18 19 C15.10822183 20.11662325 12.30713697 20.11735344 9.234375 20.09765625 C8.34492188 20.09443359 7.45546875 20.09121094 6.5390625 20.08789062 C5.61867188 20.07951172 4.69828125 20.07113281 3.75 20.0625 C2.81414062 20.05798828 1.87828125 20.05347656 0.9140625 20.04882812 C-1.39069041 20.03706918 -3.69531227 20.02063426 -6 20 C-6 19.67 -6 19.34 -6 19 C-0.06 19 5.88 19 12 19 C10.86223505 17.63122785 10.86223505 17.63122785 7.83203125 17.9375 C6.49212143 17.95353083 5.15226499 17.97460161 3.8125 18 C-0.94455233 18.07469366 -5.32872845 17.92989543 -10 17 C-9.67 15.68 -9.34 14.36 -9 13 C-9 13.66 -9 14.32 -9 15 C-8.01 14.67 -7.02 14.34 -6 14 C-7.32 13.34 -8.64 12.68 -10 12 C-10.67958603 14.39719432 -10.67958603 14.39719432 -11 17 C-10.34 17.66 -9.68 18.32 -9 19 C-10.32 18.67 -11.64 18.34 -13 18 C-13.33 16.02 -13.66 14.04 -14 12 C-14.99 12 -15.98 12 -17 12 C-17 8.37 -17 4.74 -17 1 C-16.67 1 -16.34 1 -16 1 C-16 4.3 -16 7.6 -16 11 C-15.21625 10.34 -14.4325 9.68 -13.625 9 C-11 7 -11 7 -9 7 C-8.67 6.01 -8.34 5.02 -8 4 C-6.35 4 -4.7 4 -3 4 C-3.66 3.01 -4.32 2.02 -5 1 C-3 0 -3 0 0 0 Z " fill="#A99B6D" transform="translate(122,90)"/>
<path d="M0 0 C1.91423658 0.81210037 3.52072017 1.52072017 5 3 C5.08843793 5.44830426 5.11528752 7.86820599 5.09765625 10.31640625 C5.0962413 11.04746078 5.09482635 11.77851532 5.09336853 12.53172302 C5.08775408 14.87535632 5.07519922 17.21889539 5.0625 19.5625 C5.05748686 21.14778508 5.05292363 22.73307166 5.04882812 24.31835938 C5.03777997 28.2122761 5.02050572 32.10612205 5 36 C2.54418945 34.68237305 2.54418945 34.68237305 0 33 C-0.70703125 30.08203125 -0.70703125 30.08203125 -0.8125 26.8125 C-0.86019531 25.72582031 -0.90789062 24.63914062 -0.95703125 23.51953125 C-0.97121094 22.68808594 -0.98539063 21.85664062 -1 21 C-1.33 21 -1.66 21 -2 21 C-2.33 16.71 -2.66 12.42 -3 8 C-5.97 8 -8.94 8 -12 8 C-12 7.01 -12 6.02 -12 5 C-11.0925 4.855625 -10.185 4.71125 -9.25 4.5625 C-6.78523044 4.13590527 -4.41152893 3.64925779 -2 3 C-2 2.34 -2 1.68 -2 1 C-1.34 0.67 -0.68 0.34 0 0 Z " fill="#A4904E" transform="translate(139,65)"/>
<path d="M0 0 C0.33 0 0.66 0 1 0 C1.03738281 1.13179688 1.07476562 2.26359375 1.11328125 3.4296875 C1.17893082 4.91149205 1.24537851 6.39326139 1.3125 7.875 C1.33505859 8.62136719 1.35761719 9.36773437 1.38085938 10.13671875 C1.47811945 12.099604 1.73042294 14.05328322 2 16 C2.99 16.66 3.98 17.32 5 18 C5 18.66 5 19.32 5 20 C5.66 20.33 6.32 20.66 7 21 C5.02 21.33 3.04 21.66 1 22 C1 21.34 1 20.68 1 20 C-0.32 19.67 -1.64 19.34 -3 19 C-3 19.66 -3 20.32 -3 21 C-3.99 21.33 -4.98 21.66 -6 22 C-6.66 21.67 -7.32 21.34 -8 21 C-8 20.01 -8 19.02 -8 18 C-8.99 18 -9.98 18 -11 18 C-11 14.7 -11 11.4 -11 8 C-9 8 -7 8 -5 8 C-4.71125 8.639375 -4.4225 9.27875 -4.125 9.9375 C-3.17176549 12.15206079 -3.17176549 12.15206079 -1 13 C-0.67 8.71 -0.34 4.42 0 0 Z " fill="#CEC9B9" transform="translate(138,82)"/>
<path d="M0 0 C0.66 0 1.32 0 2 0 C2 0.66 2 1.32 2 2 C2.66 2 3.32 2 4 2 C4.11622939 5.74973906 4.1872595 9.49901464 4.25 13.25 C4.28351563 14.31347656 4.31703125 15.37695312 4.3515625 16.47265625 C4.36445312 17.49746094 4.37734375 18.52226563 4.390625 19.578125 C4.41157227 20.52075195 4.43251953 21.46337891 4.45410156 22.43457031 C3.86991645 25.73490211 2.55675948 26.91612464 0 29 C-0.33 29 -0.66 29 -1 29 C-0.67 19.43 -0.34 9.86 0 0 Z " fill="#8D762C" transform="translate(110,70)"/>
<path d="M0 0 C0.33 0.66 0.66 1.32 1 2 C4.62493334 2.05787784 8.24974857 2.0935542 11.875 2.125 C13.42380859 2.15013672 13.42380859 2.15013672 15.00390625 2.17578125 C15.99003906 2.18222656 16.97617188 2.18867187 17.9921875 2.1953125 C18.90339355 2.20578613 19.81459961 2.21625977 20.75341797 2.22705078 C23.20290436 2.21870993 23.20290436 2.21870993 25 0 C25.66 1.32 26.32 2.64 27 4 C27.66 3.67 28.32 3.34 29 3 C28.67 3.99 28.34 4.98 28 6 C25.10822183 7.11662325 22.30713697 7.11735344 19.234375 7.09765625 C18.34492188 7.09443359 17.45546875 7.09121094 16.5390625 7.08789062 C15.61867188 7.07951172 14.69828125 7.07113281 13.75 7.0625 C12.81414062 7.05798828 11.87828125 7.05347656 10.9140625 7.04882812 C8.60930959 7.03706918 6.30468773 7.02063426 4 7 C4 6.67 4 6.34 4 6 C9.94 6 15.88 6 22 6 C20.86223505 4.63122785 20.86223505 4.63122785 17.83203125 4.9375 C16.49212143 4.95353083 15.15226499 4.97460161 13.8125 5 C9.05544767 5.07469366 4.67127155 4.92989543 0 4 C0 2.68 0 1.36 0 0 Z " fill="#B9A564" transform="translate(112,103)"/>
<path d="M0 0 C2.31 0 4.62 0 7 0 C7 3.96 7 7.92 7 12 C6.01 11.67 5.02 11.34 4 11 C1.4345406 13.5654594 1.45953913 15.47686668 1 19 C0.67 19 0.34 19 0 19 C0 12.73 0 6.46 0 0 Z " fill="#8D752A" transform="translate(115,74)"/>
<path d="M0 0 C2.31 0 4.62 0 7 0 C7 6.27 7 12.54 7 19 C6.67 19 6.34 19 6 19 C5.896875 18.05125 5.79375 17.1025 5.6875 16.125 C5.31460705 12.70892499 5.31460705 12.70892499 2 11 C1.01 11.495 1.01 11.495 0 12 C0 8.04 0 4.08 0 0 Z " fill="#967C29" transform="translate(128,74)"/>
<path d="M0 0 C1.98 0.495 1.98 0.495 4 1 C4 5.62 4 10.24 4 15 C2.68 15.33 1.36 15.66 0 16 C-1 15 -1 15 -1.1328125 11.875 C-1.13023438 10.59625 -1.12765625 9.3175 -1.125 8 C-1.12757812 6.72125 -1.13015625 5.4425 -1.1328125 4.125 C-1 1 -1 1 0 0 Z " fill="#AFAFAC" transform="translate(123,73)"/>
<path d="M0 0 C1.32 0.33 2.64 0.66 4 1 C3.01 1.33 2.02 1.66 1 2 C1 2.99 1 3.98 1 5 C2.65 5 4.3 5 6 5 C6 4.34 6 3.68 6 3 C7.32 3.33 8.64 3.66 10 4 C10 4.66 10 5.32 10 6 C10.66 6 11.32 6 12 6 C11.34 7.32 10.68 8.64 10 10 C8.68 9.67 7.36 9.34 6 9 C6.99 9 7.98 9 9 9 C8.67 8.01 8.34 7.02 8 6 C7.34 6.66 6.68 7.32 6 8 C2.7421875 8.1953125 2.7421875 8.1953125 -1.125 8.125 C-3.04699219 8.09792969 -3.04699219 8.09792969 -5.0078125 8.0703125 C-6.48894531 8.03550781 -6.48894531 8.03550781 -8 8 C-8 7.34 -8 6.68 -8 6 C-6.35 5.67 -4.7 5.34 -3 5 C-3.99 4.67 -4.98 4.34 -6 4 C-5.67 3.34 -5.34 2.68 -5 2 C-3.35 2.33 -1.7 2.66 0 3 C0 2.01 0 1.02 0 0 Z " fill="#CFCABB" transform="translate(129,98)"/>
<path d="M0 0 C5.28 0 10.56 0 16 0 C16 0.33 16 0.66 16 1 C14.35 1 12.7 1 11 1 C11.11362262 2.4800841 11.24122908 3.95910074 11.375 5.4375 C11.44460937 6.26121094 11.51421875 7.08492187 11.5859375 7.93359375 C11.72257813 8.61550781 11.85921875 9.29742187 12 10 C14.46278801 11.231394 16.2795055 11.07159196 19 11 C17.5 12.5625 17.5 12.5625 15 14 C12.22562457 13.96823234 9.74713533 13.50364148 7 13 C7.33 11.35 7.66 9.7 8 8 C7.01 7.67 6.02 7.34 5 7 C6 4 6 4 8 2 C5.03 1.505 5.03 1.505 2 1 C1.67 1.99 1.34 2.98 1 4 C0.67 2.68 0.34 1.36 0 0 Z " fill="#A6A398" transform="translate(118,56)"/>
<path d="M0 0 C0.66 0 1.32 0 2 0 C1.67 10.56 1.34 21.12 1 32 C0.34 32 -0.32 32 -1 32 C-1.02929981 28.16668301 -1.04689897 24.33339529 -1.0625 20.5 C-1.07087891 19.42234375 -1.07925781 18.3446875 -1.08789062 17.234375 C-1.10571885 11.38671618 -0.89105963 5.78136329 0 0 Z " fill="#866B13" transform="translate(107,69)"/>
<path d="M0 0 C3 1 3 1 4.1875 3.0625 C4.455625 3.701875 4.72375 4.34125 5 5 C3.68 4.67 2.36 4.34 1 4 C0.67 4.66 0.34 5.32 0 6 C7.26 6 14.52 6 22 6 C22 6.66 22 7.32 22 8 C18.37629339 8.25413123 14.75131263 8.47405533 11.125 8.6875 C9.57619141 8.79674805 9.57619141 8.79674805 7.99609375 8.90820312 C6.51689453 8.99038086 6.51689453 8.99038086 5.0078125 9.07421875 C4.09660645 9.13182373 3.18540039 9.18942871 2.24658203 9.2487793 C1.50520996 9.16668213 0.76383789 9.08458496 0 9 C-2 6 -2 6 -1.6875 3.375 C-1 1 -1 1 0 0 Z " fill="#C2BDAE" transform="translate(112,101)"/>
<path d="M0 0 C0.33 0 0.66 0 1 0 C1.33 3.63 1.66 7.26 2 11 C3.65 10.67 5.3 10.34 7 10 C7 12.64 7 15.28 7 18 C6.67 17.34 6.34 16.68 6 16 C5.01 16 4.02 16 3 16 C2.67 16.66 2.34 17.32 2 18 C-0.475 17.01 -0.475 17.01 -3 16 C-2.34 15.34 -1.68 14.68 -1 14 C-0.69940057 11.63490639 -0.50484988 9.25558119 -0.375 6.875 C-0.30023438 5.59367187 -0.22546875 4.31234375 -0.1484375 2.9921875 C-0.09945312 2.00476563 -0.05046875 1.01734375 0 0 Z " fill="#ADA27C" transform="translate(127,74)"/>
<path d="M0 0 C2.0625 0.4375 2.0625 0.4375 4 1 C4.33 3.64 4.66 6.28 5 9 C2.69 9.33 0.38 9.66 -2 10 C-1.85950482 8.52031676 -1.71245174 7.04125484 -1.5625 5.5625 C-1.48128906 4.73878906 -1.40007812 3.91507812 -1.31640625 3.06640625 C-1 1 -1 1 0 0 Z " fill="#A0842B" transform="translate(123,91)"/>
<path d="M0 0 C0.598125 0.639375 1.19625 1.27875 1.8125 1.9375 C3.90810337 4.20310389 3.90810337 4.20310389 7 5 C7 5.99 7 6.98 7 8 C8.98 8 10.96 8 13 8 C13.33 9.32 13.66 10.64 14 12 C13.34 12 12.68 12 12 12 C12 11.34 12 10.68 12 10 C10.68 9.67 9.36 9.34 8 9 C8 9.66 8 10.32 8 11 C7.01 11.33 6.02 11.66 5 12 C4.34 11.67 3.68 11.34 3 11 C3 10.01 3 9.02 3 8 C2.01 8 1.02 8 0 8 C0 5.36 0 2.72 0 0 Z " fill="#BBAB73" transform="translate(127,92)"/>
<path d="M0 0 C5.05531868 0.77774134 10.01716284 1.85948394 15 3 C14.67 3.99 14.34 4.98 14 6 C5.9870188 6.78558639 5.9870188 6.78558639 1.9375 3.5625 C0 1 0 1 0 0 Z " fill="#A8A8A5" transform="translate(109,67)"/>
<path d="M0 0 C2.875 -0.125 2.875 -0.125 6 0 C6.66 0.66 7.32 1.32 8 2 C7.0409375 2.433125 7.0409375 2.433125 6.0625 2.875 C3.84793921 3.82823451 3.84793921 3.82823451 3 6 C4.32 6.33 5.64 6.66 7 7 C6.67 8.32 6.34 9.64 6 11 C3.525 10.01 3.525 10.01 1 9 C1.33 7.02 1.66 5.04 2 3 C1.34 3 0.68 3 0 3 C0 2.01 0 1.02 0 0 Z " fill="#9C9375" transform="translate(120,57)"/>
<path d="M0 0 C0.33 0 0.66 0 1 0 C1 3.3 1 6.6 1 10 C1.78375 9.34 2.5675 8.68 3.375 8 C6 6 6 6 8 6 C8.33 5.01 8.66 4.02 9 3 C11 6 11 6 11 9 C9.02 9 7.04 9 5 9 C4.67 10.32 4.34 11.64 4 13 C3.67 12.34 3.34 11.68 3 11 C2.01 11 1.02 11 0 11 C0 7.37 0 3.74 0 0 Z " fill="#AFACA1" transform="translate(105,91)"/>
<path d="M0 0 C0.99 0 1.98 0 3 0 C3 3.96 3 7.92 3 12 C-0.91309271 8.08690729 -0.65319567 6.37546719 -1 1 C-0.67 0.67 -0.34 0.34 0 0 Z " fill="#856707" transform="translate(119,74)"/>
<path d="M0 0 C1.32 0.33 2.64 0.66 4 1 C4.32434322 5.64891954 3.776422 8.22406608 1 12 C0.67 12 0.34 12 0 12 C0 8.04 0 4.08 0 0 Z " fill="#876803" transform="translate(128,74)"/>
<path d="M0 0 C0.33 0.66 0.66 1.32 1 2 C2.216875 1.95875 3.43375 1.9175 4.6875 1.875 C8.21894127 1.86245492 10.80003566 2.40001783 14 4 C14 4.33 14 4.66 14 5 C9.1666528 5.08333357 4.76307437 4.95261487 0 4 C0 2.68 0 1.36 0 0 Z " fill="#AD9A5A" transform="translate(112,103)"/>
<path d="M0 0 C0.99 0 1.98 0 3 0 C3 0.99 3 1.98 3 3 C5.97 3.495 5.97 3.495 9 4 C8.67 4.66 8.34 5.32 8 6 C5.35139573 6.59355614 2.70802678 6.74209269 0 7 C0 6.34 0 5.68 0 5 C0.66 5 1.32 5 2 5 C2 4.01 2 3.02 2 2 C1.01 1.67 0.02 1.34 -1 1 C-0.67 0.67 -0.34 0.34 0 0 Z " fill="#BCB291" transform="translate(118,98)"/>
<path d="M0 0 C2 0 4 0 6 0 C6.33 0.99 6.66 1.98 7 3 C4.525 4.485 4.525 4.485 2 6 C1.34 4.02 0.68 2.04 0 0 Z " fill="#C0B9A1" transform="translate(127,90)"/>
<path d="M0 0 C2.875 -0.125 2.875 -0.125 6 0 C6.66 0.66 7.32 1.32 8 2 C6.02253397 2.73080266 4.01927511 3.39421747 2 4 C1.34 3.67 0.68 3.34 0 3 C0 2.01 0 1.02 0 0 Z " fill="#8E7935" transform="translate(120,57)"/>
<path d="M0 0 C0.33 0.66 0.66 1.32 1 2 C-0.4375 4.625 -0.4375 4.625 -2 7 C-2.99 6.67 -3.98 6.34 -5 6 C-4.67 5.34 -4.34 4.68 -4 4 C-4.33 3.01 -4.66 2.02 -5 1 C-3 0 -3 0 0 0 Z " fill="#B3B2AA" transform="translate(122,90)"/>
<path d="M0 0 C1.32 0.33 2.64 0.66 4 1 C3.67 2.32 3.34 3.64 3 5 C2.01 5 1.02 5 0 5 C0 3.35 0 1.7 0 0 Z " fill="#937109" transform="translate(123,91)"/>
</svg>
